<?xml version="1.0" encoding="utf-8"?>
<!-- Generator: Adobe Illustrator 25.2.0, SVG Export Plug-In . SVG Version: 6.00 Build 0)  -->
<svg version="1.1" id="Capa_1" xmlns="http://www.w3.org/2000/svg" xmlns:xlink="http://www.w3.org/1999/xlink" x="0px" y="0px"
	 viewBox="0 0 384 157" style="enable-background:new 0 0 384 157;" xml:space="preserve">
<style type="text/css">
	.st0{opacity:0.8;}
	.st1{fill:#FFB4B6;}
	.st2{fill:#FFF3F4;}
	.st3{fill:#FFEAEA;}
	.st4{fill:#FFD1D3;}
	.st5{fill:#FFDBDC;}
	.st6{fill:#FFE0E1;}
	.st7{fill:#FFEAEB;}
	.st8{fill:#FFC9CA;}
	.st9{fill:#FFD0D1;}
	.st10{fill:#C48E37;}
	.st11{fill:#F4A2A2;}
</style>
<g>
	<g>
		<g>
			<g>
				<g class="st0">
					<g class="st0">
						<path class="st1" d="M227.73,120.96c0.22,4.9,2.54,2,4.83,0.4c-0.35-0.13-0.7-0.29-1.05-0.46
							C230.26,120.93,229,120.96,227.73,120.96z"/>
						<path class="st1" d="M231.52,120.9c0.35,0.16,0.7,0.32,1.05,0.46c0.29-0.2,0.57-0.38,0.85-0.51
							C232.79,120.86,232.15,120.88,231.52,120.9z"/>
						<path class="st1" d="M227.76,118.47c-0.06,1-0.06,1.81-0.04,2.49c1.27,0.01,2.53-0.02,3.79-0.06
							C230.23,120.3,228.97,119.51,227.76,118.47z"/>
						<path class="st1" d="M233.41,120.84c0.66-0.03,1.34-0.03,2-0.08C234.81,120.36,234.12,120.48,233.41,120.84z"/>
						<path class="st2" d="M285.72,83.88l-3.15-0.44l-3.24-0.38c-2.05-0.23-4.11-0.46-6.16-0.7c-3.85-0.44-7.69-0.87-11.52-1.3
							c-7.65-0.88-15.23-1.79-22.76-2.73c4.07,2.8,8.08,5.62,11.71,7.5c5.45,3.01,11.13,3.32,16.87,2.45
							c2.88-0.43,5.74-1.17,8.67-1.99C279.31,85.5,282.59,84.59,285.72,83.88z"/>
						<path class="st3" d="M216.47,75.77c-4.99-0.67-9.96-1.38-14.91-2.12C206.28,75.34,211.29,76.41,216.47,75.77z"/>
						<path class="st2" d="M284.84,85.15c-3.09,0.71-6.47,1.65-9.51,2.44c-2.89,0.82-5.78,1.57-8.65,1.99
							c-5.74,0.87-11.42,0.55-16.88-2.46c-3.64-1.89-7.65-4.69-11.72-7.51c-11.99-1.51-23.82-3.15-35.54-4.96
							c-5.18,0.54-10.13-0.62-14.8-2.4c-5.74-1-11.46-2.01-17.14-3.12l-4.42-0.84l-4.93-0.89c-3.29-0.55-6.58-1.09-9.88-1.56
							c-13.19-1.93-26.46-3.14-39.87-3.75c-13.41-0.58-26.96-0.58-40.72,0.17l-2.61,0.14l-3.02,0.23c-2.04,0.14-3.95,0.37-5.92,0.58
							c-1.95,0.21-3.8,0.49-5.72,0.74c-1.82,0.28-3.7,0.55-5.48,0.86c-7.17,1.2-13.79,2.56-19.91,3.75
							c-0.71,0.14-2.13,0.55-3.89,1.16c-1.71,0.58-3.76,1.36-5.68,2.19c-3.86,1.67-7.43,3.62-8.42,5.59
							c-1.32,1.1-2.61,2.13-3.94,3.16l0.09,1.75c3.69-0.01,7.68,0.27,12.01-1.48c1.33-0.19,2.63-0.91,3.9-1.6
							c1.3-0.72,2.6-1.43,4-1.69c6.37-1.2,12.89-2.09,19.96-3.38c3.58-0.63,7.22-1.4,11.21-2.29c1.95-0.47,4.04-0.93,6.15-1.49
							c1.08-0.27,2.18-0.55,3.28-0.83c0.56-0.15,1.12-0.3,1.68-0.45c0.51-0.15,1.03-0.3,1.54-0.45c2.39-1.11,5.76,0.11,9.07,1.39
							c3.32,1.26,6.59,2.59,8.99,1.56c9.69-1.21,18.63,0.26,27.23,1.94c8.62,1.69,16.91,3.59,25.8,3.41
							c7.3-0.31,13.5-1.03,19.69-1.17c1.55-0.02,3.1-0.01,4.66,0.04c0.72,0.03,1.45,0.07,2.19,0.1c0.71,0.04,1.42,0.1,2.14,0.17
							c2.87,0.31,5.86,0.8,9.08,1.71c2.93,0.36,7.53-0.99,10.45-0.69c18.81,3.98,37.98,7.15,57.39,11.7
							c4.5,0.17,8.79,7.92,13.4,6.14c3.08-1.81,6.14-3.18,9.19-4.3c1.53-0.57,3.05-1.07,4.57-1.55c0.77-0.24,1.49-0.47,2.31-0.69
							l2.5-0.65c1.67,0.05,3.14,5.78,6.29,5.94c12.19,2.06,23.47-2.22,33.94-1.4c-0.55-0.61-1.1-1.17-1.65-1.7
							C306.78,88.76,296.12,86.71,284.84,85.15z"/>
						<g>
							<path class="st2" d="M348.89,94.14c-1.53,0.97-3.1,1.74-4.59,2.3c4.71,2,9.84,2.95,15.01,2.89c1.27-0.06,2.54-0.18,3.8-0.35
								c0.63-0.09,1.27-0.18,1.89-0.3c0.61-0.15,1.22-0.3,1.82-0.48c1.2-0.35,2.41-0.73,3.55-1.21c1.11-0.52,2.2-1.1,3.24-1.73
								C365.72,95.7,357.37,95.14,348.89,94.14z"/>
							<path class="st2" d="M333,93.25l0.3,0.34c-5.31-0.9-10.63-1.88-16.02-2.88c0.56,0.53,1.11,1.09,1.65,1.7
								c3.12,0.26,6.12,0.92,9.11,2.42c0.79,0.42,1.59,0.8,2.4,1.17c1.17-0.38,2.4-0.91,3.64-1.5c0.19,0.22,0.39,0.43,0.58,0.66
								c2.39,2.68,5.86,2.77,9.64,1.29c-0.8-0.34-1.61-0.69-2.38-1.07c-1.46-0.67-2.96-1.19-4.43-1.52
								C336.01,93.52,334.52,93.35,333,93.25z"/>
						</g>
						<path class="st4" d="M326.04,144.22c-2.75-1.59-5.2-2.23-7.56-2.34c-2.31-0.13-4.51,0.25-6.71,0.69
							c-2.18,0.44-4.34,0.93-6.63,1.02c-2.27,0.1-4.6-0.2-7.18-1.35c-7.44-2.98-14.63-3.11-21.2-2.39
							c7.43,1.41,15.3,3.15,23.42,4.62c8.13,1.46,16.57,2.67,25.42,3.07C325.36,146.59,325.4,145.5,326.04,144.22z"/>
						<path class="st5" d="M372.86,118.95c-1.41,1.64-3.17,2.96-5.33,3.82c-2.13,0.75-4.69,1.13-7.62,0.78
							c-4.96-0.65-9.41-2.47-13.53-4.13c-2.06-0.86-4.05-1.64-6-2.24c-1.95-0.63-3.87-1.05-5.8-1.11c-10.74-1.37-22.49,1-34.06,2.05
							c-5.77,0.54-11.47,0.71-16.93,0c-2.75-0.4-5.42-0.93-8.09-1.88c-2.76-0.92-5.48-2.18-8.13-3.9
							c-9.86-5.92-20.47-7.2-31.56-7.26c-11.08-0.05-22.66,1.11-34.11,0.09c-4.57-0.39-11.05,2.79-15.65,2.28
							c-7.65-0.85-14.91-1.75-21.96-2.79c-7.01-1.02-13.73-1.9-20.55-2.56c-2.64-0.26-4.67-1.04-6.43-2.04
							c-1.76-1.01-3.24-2.27-4.79-3.44c-3.1-2.36-6.48-4.5-12.71-3.8c-1.53-0.08-4.5-3.97-6.07-4.02
							c-8.98,0.21-18.02,0.45-27.11,0.8c-4.54,0.18-9.1,0.35-13.66,0.58c-2.25,0.09-4.65,0.25-7.01,0.41
							c-2.35,0.2-4.7,0.41-7.02,0.67c-9.3,1.03-18.35,2.5-27.12,3.55c-8.78,1.08-17.3,1.65-25.31,1.18
							c-0.14,4.18,0.05,8.22,0.57,11.93c12.16-1.1,24.52-2.43,36.74-3.24c6.09-0.4,12.11-0.64,17.9-0.66c1.45-0.02,2.88,0,4.3,0.03
							c1.42,0,2.82,0.06,4.21,0.11c1.42,0.05,2.83,0.1,4.24,0.15c1.42,0.04,2.83,0.08,4.23,0.12c30.18,2.25,60.09-0.04,89.73,8.5
							c14.26,3.58,29.85,6.77,44.81,7.09c-0.02-0.68,0-1.49,0.08-2.49c1.19,1.06,2.44,1.87,3.72,2.5c0.64-0.01,1.27-0.02,1.9-0.03
							c0.72-0.35,1.41-0.46,2-0.05c-0.66,0.03-1.34,0.03-2,0.05c-0.28,0.13-0.57,0.3-0.86,0.5c5.56,2.22,11.67,1.1,17.16-0.19
							c5.49-1.27,10.37-2.67,13.67-0.9c5.69,3.06,11.86,4.54,18.19,5.13c1.58,0.15,3.17,0.23,4.77,0.28l2.4,0.03l2.32-0.01
							c1.49-0.02,2.98-0.07,4.48-0.14c1.52-0.04,3.05-0.11,4.57-0.18c6.12-0.27,12.27-0.6,18.16-0.41c5.87,0.18,11.44,0.83,16.4,2.6
							c10.16,2.66,20,3.93,29.36,3.12c9.33-0.81,18.25-3.73,25.57-9.29C374.15,120.08,373.48,119.55,372.86,118.95z"/>
						<path class="st6" d="M368.89,101.61c-0.73-1.08-1.37-2-1.87-2.71c-5.44,5.92-13.6,8.85-22.24,9.79
							c-8.69,0.97-17.91,0.04-26.61-1.18c-1.52-0.11-4.28-4.12-7.19-6.24c-7.48-2.47-12.8,6.65-18.8,4.36
							c-3.3-1.18-6.65-2.19-10.03-3.1c-3.39-0.87-6.89-1.62-10.16-2.24c-6.64-1.26-13.27-2.22-19.89-2.96
							c-13.24-1.48-26.44-2.1-39.66-2.48c-13.22-0.41-26.47-0.59-39.72-1.25c-3.33-0.15-6.59-0.37-9.97-0.58
							c-3.42-0.24-6.85-0.43-10.26-0.61c-6.83-0.34-13.64-0.58-20.44-0.81c-3.11-0.21,0.67-9.5-3.99-11.68
							c-6.31-1.34-12.29-1.53-18.06-2.13c-5.78-0.6-11.35-1.52-17.03-4.3c-1.66-1.87-6.37,3.94-11.04,6.04
							c-2.16,0.81-4.29,1.4-6.41,1.79c-2.14,0.43-4.19,0.65-6.38,0.8c-4.56,0.3-8.99,0.33-13.39,0.38
							c-8.77,0.14-17.21,0.48-24.88,3.91c-4.08,2.23-8.29,3.09-12.42,3.66c-4.14,0.56-8.14,0.84-12.01,1.86
							c-0.08,1.36-0.13,2.72-0.16,4.07c8.01,0.47,16.53-0.1,25.31-1.18c8.78-1.05,17.82-2.52,27.12-3.55
							c2.32-0.26,4.67-0.47,7.02-0.67c2.36-0.16,4.77-0.33,7.01-0.41c4.56-0.24,9.12-0.4,13.66-0.58c9.09-0.35,18.13-0.59,27.11-0.8
							c1.57,0.04,4.54,3.94,6.07,4.02c4.81-0.55,7.49,1.53,10.61,3.82c3.12,2.31,6.67,4.81,13.32,5.46
							c6.94,0.68,13.61,1.55,20.56,2.56c6.99,1.03,14.19,1.93,21.96,2.79c4.6,0.52,11.09-2.67,15.65-2.28
							c11.45,1.02,23.03-0.14,34.11-0.09c11.09,0.06,21.71,1.34,31.56,7.26c2.65,1.72,5.37,2.98,8.13,3.9
							c2.68,0.95,5.34,1.49,8.09,1.88c5.46,0.71,11.17,0.54,16.93,0c11.58-1.05,23.33-3.42,34.06-2.05c1.93,0.06,3.85,0.48,5.8,1.11
							c1.96,0.6,3.95,1.38,6,2.24c4.12,1.66,8.57,3.47,13.53,4.13c2.93,0.35,5.49-0.03,7.62-0.78c2.16-0.86,3.92-2.18,5.33-3.82
							c-4.32-4.12-6.41-10.42-7.16-16.9C366.49,101.95,367.72,101.78,368.89,101.61z"/>
						<path class="st7" d="M379.17,114.22c-4.23-8.37-7.63-13.8-9.26-15.93c-0.83-1.08-1.23-1.3-1.01-0.61
							c0.22,0.67,1.08,2.34,2.84,4.8c-1.15,0.25-2.42,0.36-3.21,0.49c0.46,3.23,1.25,6.41,2.49,9.3c0.62,1.44,1.35,2.81,2.21,4.08
							c0.86,1.24,1.84,2.35,2.97,3.32C377.47,118.07,378.44,116.24,379.17,114.22z"/>
						<path class="st7" d="M365.81,97.24c-0.75,0.01-1.53-0.03-2.32-0.08l-2.33-0.12c-0.59,0.26-1.2,0.51-1.8,0.74
							c-0.62,0.22-1.25,0.4-1.88,0.58c-1.26,0.36-2.55,0.65-3.84,0.89c-2.63,0.38-5.26,0.6-7.93,0.45
							c-2.66-0.13-5.28-0.49-7.85-1.14c-2.55-0.61-5.05-1.49-7.42-2.57c-3.95,1.29-7.46,1.13-9.85-1.65
							c-0.55-0.7-1.11-1.33-1.66-1.95c-10.47-0.83-21.76,3.45-33.94,1.4c-3.15-0.17-4.62-5.89-6.29-5.94l-2.5,0.65
							c-0.82,0.22-1.54,0.46-2.31,0.69c-1.52,0.48-3.04,0.99-4.57,1.55c-3.05,1.12-6.11,2.48-9.19,4.3
							c-4.61,1.78-8.91-5.97-13.4-6.14c-19.4-4.56-38.58-7.72-57.39-11.7c-2.92-0.3-7.52,1.05-10.45,0.69
							c-3.22-0.9-6.21-1.4-9.08-1.71c-0.72-0.07-1.43-0.13-2.14-0.17c-0.74-0.03-1.46-0.07-2.19-0.1c-1.56-0.06-3.11-0.06-4.66-0.04
							c-6.19,0.14-12.39,0.86-19.69,1.17c-8.89,0.18-17.18-1.72-25.8-3.41c-8.6-1.68-17.54-3.15-27.23-1.94
							c-2.4,1.03-5.67-0.3-8.99-1.56c-3.31-1.28-6.68-2.5-9.07-1.39c-0.52,0.15-1.03,0.3-1.54,0.45c-0.56,0.15-1.13,0.3-1.68,0.45
							c-1.11,0.28-2.2,0.55-3.28,0.83c-2.11,0.56-4.2,1.01-6.15,1.49c-3.99,0.89-7.63,1.66-11.21,2.29
							c-7.07,1.3-13.59,2.19-19.96,3.38c-1.4,0.26-2.7,0.98-4,1.69c-1.26,0.68-2.57,1.4-3.9,1.6c-4.33,1.74-8.32,1.47-12.01,1.48
							l0.35,6.48c-0.09,1.02-0.16,2.04-0.22,3.07c3.87-1.02,7.88-1.3,12.01-1.86c4.13-0.57,8.34-1.43,12.42-3.66
							c7.67-3.43,16.12-3.76,24.88-3.91c4.4-0.05,8.83-0.08,13.39-0.38c2.2-0.15,4.24-0.37,6.38-0.8c2.12-0.4,4.26-0.99,6.41-1.79
							c4.67-2.1,9.38-7.9,11.04-6.04c5.68,2.78,11.25,3.7,17.03,4.3c5.77,0.6,11.76,0.79,18.06,2.13
							c4.65,2.18,0.87,11.48,3.99,11.68c6.79,0.23,13.6,0.47,20.44,0.81c3.41,0.18,6.83,0.37,10.26,0.61
							c3.38,0.2,6.64,0.43,9.97,0.58c13.25,0.66,26.5,0.84,39.72,1.25c13.22,0.39,26.43,1.01,39.66,2.48
							c6.62,0.74,13.25,1.71,19.89,2.96c3.27,0.62,6.77,1.37,10.16,2.24c3.38,0.91,6.73,1.92,10.03,3.1c6,2.29,11.32-6.83,18.8-4.36
							c2.91,2.13,5.67,6.14,7.19,6.24c8.7,1.22,17.93,2.15,26.61,1.18c8.65-0.94,16.81-3.87,22.24-9.79
							C366.28,97.89,365.81,97.24,365.81,97.24z"/>
						<path class="st4" d="M175.19,125.52c6.89,0.95,13.94,1.91,21.24,3.05c0.46,0.04,1.56,0.2,3.1,0.42
							C191.51,127.41,183.28,125.44,175.19,125.52z"/>
						<path class="st4" d="M211.39,130.74c7.84,1.14,16.72,2.24,21.48,2.77c-5.05-3.37-10.39-5.8-16.59-6.22
							C216.29,127.29,213,130.73,211.39,130.74z"/>
						<g>
							<path class="st8" d="M338.3,147.5c1.51-0.06,3.1-0.2,4.67-0.34c1.57-0.15,3.13-0.31,4.72-0.52c1.62-0.23,3.23-0.49,4.84-0.78
								l2.42-0.45l2.49-0.56c1.66-0.39,3.31-0.81,4.95-1.26c1.7-0.51,3.39-1.05,5.08-1.63c0.84-0.29,1.67-0.57,2.52-0.9
								c0.86-0.35,1.72-0.7,2.59-1.05c1.73-0.74,3.39-1.43,5.12-2.3c-1.85,0.22-3.59,0.37-5.36,0.64c-1.73,0.28-3.45,0.55-5.17,0.83
								c-1.68,0.29-3.36,0.64-5.03,1.02c-1.63,0.33-3.25,0.71-4.87,1.14c-1.61,0.44-3.21,0.89-4.82,1.33
								c-1.59,0.46-3.18,0.96-4.77,1.5c-1.57,0.51-3.12,1.03-4.69,1.59L338.3,147.5z"/>
							<path class="st9" d="M374.87,120.53c-7.32,5.56-16.24,8.48-25.57,9.29c-9.37,0.82-19.2-0.45-29.36-3.12
								c-4.96-1.76-10.53-2.42-16.4-2.6c-5.89-0.18-12.05,0.15-18.16,0.41c-1.52,0.08-3.04,0.14-4.57,0.18
								c-1.49,0.07-2.99,0.13-4.48,0.14l-2.32,0.01l-2.4-0.03c-1.6-0.05-3.19-0.13-4.77-0.28c-6.33-0.59-12.5-2.06-18.19-5.13
								c-3.3-1.77-8.18-0.37-13.67,0.9c-5.48,1.28-11.6,2.41-17.16,0.19c-2.32,1.55-4.7,4.42-4.83-0.48
								c-14.96-0.33-30.55-3.52-44.81-7.09c-29.63-8.54-59.55-6.25-89.73-8.5c-1.4-0.04-2.81-0.08-4.23-0.12
								c-1.4-0.05-2.82-0.1-4.24-0.15c-1.39-0.04-2.79-0.11-4.21-0.11c-1.42-0.03-2.85-0.04-4.3-0.03
								c-5.79,0.02-11.81,0.26-17.9,0.66c-12.22,0.8-24.58,2.14-36.74,3.24c0.76,5.41,2.35,10.07,5.03,13.29
								c1.32,1.58,2.88,2.79,4.7,3.55c1.78,0.72,3.83,1,6.01,0.68c8.86,0.22,16.89-0.34,24.16-0.96c7.26-0.63,13.79-1.35,19.69-1.78
								c1.46-0.09,2.93-0.23,4.31-0.28l2.14-0.12c0.81-0.04,1.62-0.07,2.42-0.11c3.22-0.16,6.42-0.32,9.6-0.48
								c6.37-0.32,12.69-0.63,19.03-0.83c9.53-2.32,19.14-3.1,28.31-1.43c-4.81,0.13-9.68,0.72-14.56,1.75
								c11.49-0.01,23.05,0.27,34.9,1.46c-0.33-0.13-0.68-0.21-1.01-0.33c1.42,0.16,2.84,0.34,4.25,0.54
								c1.45,0.21,2.92,0.43,4.4,0.65c8.12,0.12,16.31,2.26,24.33,4.01c2.82,0.47,7.14,1.19,11.86,1.98c0.8,0,4.94-0.01,9.49,0.32
								c4.55,0.37,9.51,1.09,12.02,2.82c1.62,0.19,2.76,0.32,3.23,0.35c14.28,1.91,27.82,4.35,41.01,6.54
								c3.85-0.35,7.69-0.57,11.56-0.4c0.48,0.02,0.99,0.05,1.43,0.09l1.26,0.14c0.84,0.11,1.68,0.25,2.52,0.42
								c1.65,0.32,3.47,0.88,5.2,1.56c1.18,0.53,2.49,1,3.87,1.42c1.37,0.42,2.76,0.76,4.2,1.07c2.91,0.63,5.81,1.04,8.52,1.37
								c1.34,0.15,2.61,0.29,3.75,0.41c1.17,0.12,2.21,0.23,3.08,0.31c1.75,0.19,2.82,0.36,2.87,0.6c3.97,0.24,7.99,0.34,12.14,0.25
								c2.97-1.06,6.05-2.1,9.06-2.97c3.05-0.89,6.13-1.67,9.22-2.29c3.15-0.67,6.22-1.08,9.47-1.44c1.61-0.17,3.21-0.25,4.85-0.32
								c1.66-0.09,3.33-0.13,5.02-0.09c1.67-0.62,3.42-1.38,5.14-2.16c0.85-0.4,1.71-0.8,2.56-1.2l1.27-0.62l1.3-0.7
								c6.24-3.32,8.25-8.11,7.92-12.76C377.11,121.79,375.94,121.22,374.87,120.53z"/>
						</g>
					</g>
				</g>
			</g>
		</g>
	</g>
	<g>
		<path class="st10" d="M40.04,69.8c-0.72,2.08-1.32,4.46-1.82,7.15c-0.5,2.69-0.74,5.64-0.74,8.86c0,2.28,0.07,4.58,0.22,6.91
			c0.15,2.33,0.27,4.83,0.37,7.5c0.59-0.32,1.11-0.48,1.56-0.48c0.35,0,0.66,0.12,0.93,0.35c0.27,0.24,0.41,0.54,0.41,0.91
			c0,0.54-0.25,0.95-0.74,1.21s-1.2,0.59-2.12,0.98v3.23c0,5.64-0.33,10.82-0.98,15.54c-0.66,4.72-1.71,8.78-3.17,12.18
			s-3.39,6.06-5.77,7.97s-5.3,2.86-8.74,2.86c-1.46,0-2.9-0.28-4.31-0.84c-1.41-0.56-2.67-1.4-3.77-2.54
			c-1.1-1.14-1.99-2.56-2.67-4.25c-0.68-1.7-1.02-3.68-1.02-5.96c0-2.5,0.46-4.88,1.39-7.15c0.93-2.27,2.15-4.39,3.68-6.39
			s3.26-3.84,5.22-5.53c1.96-1.7,3.95-3.24,6-4.62s4.05-2.6,6.03-3.64c1.98-1.04,3.75-1.89,5.31-2.56
			c-0.05-2.55-0.16-5.11-0.33-7.67c-0.17-2.56-0.26-5.19-0.26-7.89c0-2.53,0.15-4.96,0.46-7.3s0.74-4.52,1.28-6.55
			c-0.97,0.54-2.02,1.05-3.17,1.52c-1.15,0.47-2.36,0.92-3.62,1.34s-2.56,0.83-3.88,1.23c-1.32,0.4-2.63,0.78-3.92,1.15
			c-1.96,0.57-3.73,1.19-5.33,1.88c-1.6,0.68-2.96,1.47-4.1,2.36s-2.02,1.91-2.66,3.04c-0.63,1.14-0.95,2.45-0.95,3.94
			c0,1.73,0.33,3.21,1,4.42c0.67,1.21,1.54,2.2,2.62,2.95s2.29,1.3,3.64,1.63c1.35,0.33,2.69,0.5,4.03,0.5
			c0.4,0,0.72,0.14,0.98,0.41c0.26,0.27,0.39,0.61,0.39,1s-0.14,0.72-0.43,0.98c-0.28,0.26-0.6,0.39-0.95,0.39
			c-1.68,0-3.36-0.24-5.03-0.72c-1.67-0.48-3.17-1.23-4.51-2.23c-1.34-1-2.43-2.27-3.27-3.81c-0.84-1.53-1.26-3.34-1.26-5.42
			c0-1.81,0.37-3.42,1.1-4.85s1.75-2.69,3.06-3.81s2.9-2.09,4.75-2.93c1.86-0.84,3.91-1.58,6.16-2.23c1.63-0.47,3.26-0.97,4.86-1.49
			c1.61-0.52,3.14-1.06,4.59-1.62c1.45-0.56,2.78-1.14,3.99-1.75c1.21-0.61,2.25-1.24,3.12-1.91c0.99-2.77,2.05-4.91,3.19-6.41
			s2.23-2.25,3.27-2.25c0.22,0,0.46,0.04,0.72,0.13c0.26,0.09,0.51,0.22,0.74,0.41c0.24,0.19,0.43,0.44,0.58,0.76
			c0.15,0.32,0.22,0.72,0.22,1.19c0,1.09-0.57,2.33-1.71,3.71S41.99,68.39,40.04,69.8z M35.32,104.41
			c-1.44,0.62-3.04,1.41-4.83,2.38c-1.78,0.97-3.6,2.09-5.44,3.38c-1.84,1.29-3.64,2.71-5.38,4.27c-1.75,1.56-3.3,3.24-4.68,5.03
			c-1.37,1.79-2.48,3.69-3.3,5.68c-0.83,1.99-1.24,4.05-1.24,6.18c0,1.81,0.26,3.39,0.78,4.75c0.52,1.36,1.22,2.5,2.1,3.42
			s1.88,1.6,3.01,2.06c1.13,0.46,2.28,0.69,3.47,0.69c2.05,0,3.86-0.48,5.42-1.43c1.56-0.95,2.91-2.28,4.07-3.97
			c1.15-1.7,2.11-3.71,2.88-6.05c0.77-2.34,1.39-4.91,1.86-7.72c0.47-2.81,0.8-5.79,1-8.95C35.22,110.97,35.32,107.73,35.32,104.41z
			"/>
		<path class="st10" d="M51.14,114.85c0.52,0.72,1.19,1.29,2.01,1.73c0.82,0.43,1.82,0.65,3.01,0.65c1.21,0,2.31-0.29,3.3-0.87
			s1.89-1.34,2.71-2.28c0.82-0.94,1.55-1.99,2.19-3.16c0.64-1.16,1.23-2.33,1.75-3.49c0.12-0.27,0.3-0.48,0.52-0.61
			s0.47-0.2,0.74-0.2c0.42,0,0.76,0.15,1.02,0.45s0.39,0.62,0.39,0.97c0,0.12-0.01,0.23-0.04,0.32c-0.02,0.09-0.06,0.18-0.11,0.28
			c-1.71,3.76-3.57,6.6-5.59,8.5c-2.02,1.91-4.3,2.88-6.85,2.93c-1.63,0-3.04-0.32-4.23-0.95c-1.19-0.63-2.17-1.45-2.93-2.45
			c-0.77-1-1.34-2.14-1.71-3.4c-0.37-1.26-0.56-2.53-0.56-3.79c0-1.26,0.15-2.43,0.46-3.49c0.31-1.06,0.76-1.99,1.34-2.78
			c0.58-0.79,1.27-1.41,2.08-1.86c0.8-0.45,1.69-0.67,2.66-0.67c0.57,0,1.13,0.12,1.69,0.35s1.06,0.57,1.5,1s0.8,0.96,1.08,1.58
			c0.27,0.62,0.41,1.32,0.41,2.12c0,1.01-0.17,1.97-0.52,2.86s-0.82,1.72-1.43,2.49c-0.61,0.77-1.33,1.47-2.17,2.12
			C53.01,113.82,52.11,114.38,51.14,114.85z M50.03,112.43c0.77-0.32,1.47-0.73,2.1-1.23c0.63-0.5,1.17-1.04,1.62-1.63
			s0.79-1.22,1.04-1.88s0.37-1.32,0.37-1.99c0-0.74-0.19-1.31-0.56-1.69c-0.37-0.38-0.8-0.58-1.3-0.58c-0.67,0-1.24,0.19-1.71,0.56
			s-0.85,0.85-1.15,1.45s-0.51,1.26-0.65,1.99s-0.2,1.45-0.2,2.17c0,0.45,0.04,0.92,0.13,1.41C49.8,111.52,49.9,111.99,50.03,112.43
			z"/>
		<path class="st10" d="M74.35,115.59c0.4-0.82,0.85-1.71,1.37-2.69c0.52-0.98,1.08-1.97,1.67-2.97c0.59-1,1.22-2,1.88-2.99
			c0.66-0.99,1.34-1.93,2.06-2.82c0.72-0.87,1.44-1.49,2.17-1.88c0.73-0.38,1.42-0.58,2.06-0.58c1.29,0,2.24,0.47,2.86,1.41
			c0.62,0.94,0.93,2.1,0.93,3.49c0,0.32-0.02,0.71-0.06,1.17s-0.07,0.95-0.11,1.47c-0.04,0.52-0.07,1.05-0.11,1.58
			c-0.04,0.53-0.06,1.03-0.06,1.5c0,0.59,0.03,1.16,0.09,1.71c0.06,0.54,0.18,1.02,0.35,1.43c0.17,0.41,0.42,0.73,0.74,0.97
			s0.74,0.35,1.26,0.35c0.94,0,1.86-0.37,2.75-1.1s1.71-1.6,2.47-2.6s1.41-2.02,1.97-3.06c0.56-1.04,0.97-1.88,1.24-2.53
			c0.12-0.27,0.3-0.48,0.54-0.63c0.24-0.15,0.49-0.22,0.76-0.22c0.42,0,0.76,0.15,1.02,0.46c0.26,0.31,0.39,0.64,0.39,0.98
			c0,0.17-0.04,0.35-0.11,0.52c-0.1,0.2-0.3,0.61-0.59,1.23c-0.3,0.62-0.69,1.33-1.17,2.14c-0.48,0.8-1.05,1.66-1.69,2.56
			c-0.64,0.9-1.36,1.73-2.14,2.47c-0.78,0.74-1.62,1.36-2.53,1.86c-0.9,0.5-1.85,0.74-2.84,0.74c-1.11,0-2.02-0.22-2.71-0.65
			s-1.24-1-1.63-1.71s-0.66-1.49-0.8-2.34c-0.14-0.85-0.2-1.71-0.2-2.58c0-0.37,0.02-0.79,0.06-1.26c0.04-0.47,0.09-0.97,0.15-1.49
			c0.06-0.52,0.11-1.04,0.15-1.56c0.04-0.52,0.06-1.01,0.06-1.49c0-0.79-0.12-1.33-0.37-1.62c-0.25-0.28-0.47-0.43-0.67-0.43
			c-0.4,0-0.85,0.23-1.36,0.69s-1.04,1.06-1.6,1.8c-0.56,0.74-1.13,1.58-1.71,2.51s-1.13,1.85-1.63,2.77
			c-0.51,0.92-0.98,1.79-1.41,2.62s-0.77,1.52-1.02,2.06c-0.5,1.04-0.99,1.74-1.49,2.1s-1,0.54-1.52,0.54
			c-0.72,0-1.29-0.22-1.73-0.65c-0.43-0.43-0.65-1.05-0.65-1.84c0-0.17,0.02-0.51,0.07-1.02c0.05-0.51,0.11-1.11,0.19-1.82
			c0.07-0.71,0.15-1.47,0.22-2.28c0.07-0.82,0.15-1.63,0.22-2.43c0.07-0.8,0.14-1.55,0.19-2.25c0.05-0.69,0.07-1.27,0.07-1.75
			c0-0.62-0.02-1.21-0.07-1.78c-0.05-0.57-0.15-0.92-0.3-1.04c-0.22,0.07-0.62,0.54-1.19,1.39c-0.57,0.85-1.3,2.36-2.19,4.51
			c-0.12,0.27-0.31,0.48-0.56,0.63c-0.25,0.15-0.51,0.22-0.78,0.22c-0.42,0-0.76-0.14-1-0.43c-0.25-0.28-0.37-0.61-0.37-0.98
			c0-0.17,0.04-0.36,0.11-0.56c1.11-2.65,2.16-4.6,3.14-5.85c0.98-1.25,1.95-1.88,2.91-1.88c0.57,0,1.05,0.14,1.45,0.43
			c0.4,0.28,0.71,0.66,0.95,1.13c0.24,0.47,0.41,0.99,0.52,1.56s0.17,1.15,0.17,1.75c0,0.45-0.03,1.14-0.09,2.08
			c-0.06,0.94-0.14,1.95-0.24,3.03c-0.1,1.08-0.19,2.15-0.28,3.21C74.51,113.98,74.42,114.87,74.35,115.59z"/>
		<path class="st10" d="M108.18,115.59c0.4-0.82,0.85-1.71,1.37-2.69c0.52-0.98,1.08-1.97,1.67-2.97c0.59-1,1.22-2,1.88-2.99
			c0.66-0.99,1.34-1.93,2.06-2.82c0.72-0.87,1.44-1.49,2.17-1.88c0.73-0.38,1.42-0.58,2.06-0.58c1.29,0,2.24,0.47,2.86,1.41
			c0.62,0.94,0.93,2.1,0.93,3.49c0,0.32-0.02,0.71-0.06,1.17s-0.07,0.95-0.11,1.47c-0.04,0.52-0.07,1.05-0.11,1.58
			c-0.04,0.53-0.06,1.03-0.06,1.5c0,0.59,0.03,1.16,0.09,1.71c0.06,0.54,0.18,1.02,0.35,1.43c0.17,0.41,0.42,0.73,0.74,0.97
			s0.74,0.35,1.26,0.35c0.94,0,1.86-0.37,2.75-1.1c0.89-0.73,1.71-1.6,2.47-2.6c0.76-1,1.41-2.02,1.97-3.06
			c0.56-1.04,0.97-1.88,1.24-2.53c0.12-0.27,0.3-0.48,0.54-0.63c0.24-0.15,0.49-0.22,0.76-0.22c0.42,0,0.76,0.15,1.02,0.46
			c0.26,0.31,0.39,0.64,0.39,0.98c0,0.17-0.04,0.35-0.11,0.52c-0.1,0.2-0.3,0.61-0.59,1.23c-0.3,0.62-0.69,1.33-1.17,2.14
			c-0.48,0.8-1.05,1.66-1.69,2.56c-0.64,0.9-1.36,1.73-2.14,2.47c-0.78,0.74-1.62,1.36-2.53,1.86c-0.9,0.5-1.85,0.74-2.84,0.74
			c-1.11,0-2.02-0.22-2.71-0.65s-1.24-1-1.63-1.71s-0.66-1.49-0.8-2.34c-0.14-0.85-0.2-1.71-0.2-2.58c0-0.37,0.02-0.79,0.06-1.26
			c0.04-0.47,0.09-0.97,0.15-1.49c0.06-0.52,0.11-1.04,0.15-1.56c0.04-0.52,0.06-1.01,0.06-1.49c0-0.79-0.12-1.33-0.37-1.62
			c-0.25-0.28-0.47-0.43-0.67-0.43c-0.4,0-0.85,0.23-1.36,0.69c-0.51,0.46-1.04,1.06-1.6,1.8c-0.56,0.74-1.13,1.58-1.71,2.51
			s-1.13,1.85-1.63,2.77c-0.51,0.92-0.98,1.79-1.41,2.62s-0.77,1.52-1.02,2.06c-0.5,1.04-0.99,1.74-1.49,2.1s-1,0.54-1.52,0.54
			c-0.72,0-1.29-0.22-1.73-0.65c-0.43-0.43-0.65-1.05-0.65-1.84c0-0.17,0.02-0.51,0.07-1.02c0.05-0.51,0.11-1.11,0.19-1.82
			c0.07-0.71,0.15-1.47,0.22-2.28c0.07-0.82,0.15-1.63,0.22-2.43c0.07-0.8,0.14-1.55,0.19-2.25c0.05-0.69,0.07-1.27,0.07-1.75
			c0-0.62-0.02-1.21-0.07-1.78c-0.05-0.57-0.15-0.92-0.3-1.04c-0.22,0.07-0.62,0.54-1.19,1.39c-0.57,0.85-1.3,2.36-2.19,4.51
			c-0.12,0.27-0.31,0.48-0.56,0.63c-0.25,0.15-0.51,0.22-0.78,0.22c-0.42,0-0.76-0.14-1-0.43c-0.25-0.28-0.37-0.61-0.37-0.98
			c0-0.17,0.04-0.36,0.11-0.56c1.11-2.65,2.16-4.6,3.14-5.85c0.98-1.25,1.95-1.88,2.91-1.88c0.57,0,1.05,0.14,1.45,0.43
			c0.4,0.28,0.71,0.66,0.95,1.13c0.24,0.47,0.41,0.99,0.52,1.56c0.11,0.57,0.17,1.15,0.17,1.75c0,0.45-0.03,1.14-0.09,2.08
			c-0.06,0.94-0.14,1.95-0.24,3.03c-0.1,1.08-0.19,2.15-0.28,3.21C108.33,113.98,108.25,114.87,108.18,115.59z"/>
		<path class="st10" d="M139.82,89.78c0,0.94-0.33,1.74-0.98,2.4c-0.66,0.66-1.45,0.98-2.4,0.98c-0.94,0-1.74-0.33-2.4-0.98
			c-0.66-0.66-0.98-1.45-0.98-2.4c0-0.47,0.09-0.91,0.26-1.32c0.17-0.41,0.41-0.77,0.72-1.08c0.31-0.31,0.67-0.55,1.08-0.72
			c0.41-0.17,0.85-0.26,1.32-0.26c0.47,0,0.91,0.09,1.32,0.26c0.41,0.17,0.77,0.41,1.08,0.72c0.31,0.31,0.55,0.67,0.72,1.08
			C139.73,88.87,139.82,89.31,139.82,89.78z M133.8,111.54c0-3.56,0.22-7.12,0.67-10.66c0.05-0.35,0.2-0.65,0.46-0.91
			s0.6-0.39,1.02-0.39c0.37,0,0.68,0.14,0.93,0.43s0.37,0.61,0.37,0.98c0,0.15-0.03,0.59-0.09,1.34c-0.06,0.74-0.14,1.63-0.22,2.66
			c-0.09,1.03-0.16,2.12-0.22,3.27s-0.09,2.21-0.09,3.17c0,1.31,0.13,2.37,0.39,3.17c0.26,0.8,0.59,1.43,1,1.88
			c0.41,0.45,0.84,0.74,1.3,0.89c0.46,0.15,0.9,0.22,1.32,0.22c0.69,0,1.41-0.25,2.15-0.74c0.74-0.5,1.5-1.19,2.28-2.08
			s1.57-1.96,2.36-3.21s1.57-2.64,2.34-4.18c0.12-0.25,0.3-0.44,0.52-0.58c0.22-0.14,0.47-0.2,0.74-0.2c0.4,0,0.72,0.15,0.98,0.45
			s0.39,0.62,0.39,0.97c0,0.25-0.05,0.46-0.15,0.63c-0.3,0.57-0.67,1.26-1.11,2.08c-0.45,0.82-0.95,1.66-1.52,2.53
			s-1.19,1.73-1.88,2.58c-0.68,0.85-1.4,1.62-2.17,2.3c-0.77,0.68-1.57,1.23-2.41,1.65s-1.7,0.63-2.56,0.63
			c-1.11,0-2.09-0.24-2.93-0.71s-1.55-1.1-2.14-1.89c-0.58-0.79-1.01-1.73-1.3-2.8C133.94,113.94,133.8,112.78,133.8,111.54z
			 M137.74,89.78c0-0.35-0.13-0.65-0.39-0.91s-0.56-0.39-0.91-0.39c-0.35,0-0.64,0.13-0.89,0.39s-0.37,0.56-0.37,0.91
			c0,0.35,0.12,0.64,0.37,0.89c0.25,0.25,0.54,0.37,0.89,0.37c0.35,0,0.65-0.12,0.91-0.37C137.61,90.43,137.74,90.13,137.74,89.78z"
			/>
		<path class="st10" d="M232.39,79.94c-0.07,0.35-0.24,0.62-0.48,0.82s-0.52,0.3-0.82,0.3c-0.45,0-0.8-0.14-1.08-0.43
			c-0.27-0.28-0.41-0.61-0.41-0.98c0-0.37,0.04-0.74,0.11-1.1c0.07-0.36,0.11-0.71,0.11-1.06c0-1.81-0.56-3.43-1.67-4.86
			c-1.11-1.44-2.69-2.64-4.73-3.62c-2.04-0.98-4.52-1.73-7.45-2.25c-2.92-0.52-6.18-0.78-9.77-0.78c-2.75,0-5.51,0.18-8.3,0.54
			c-2.78,0.36-5.46,0.88-8.02,1.56c-2.56,0.68-4.96,1.53-7.19,2.56c-2.23,1.03-4.17,2.22-5.81,3.56s-2.94,2.85-3.88,4.49
			c-0.94,1.65-1.41,3.45-1.41,5.4c0,1.51,0.33,2.84,0.98,3.99s1.55,2.15,2.69,3.01s2.48,1.58,4.03,2.19
			c1.55,0.61,3.22,1.11,5.03,1.52c1.81,0.41,3.69,0.74,5.64,1c1.96,0.26,3.92,0.48,5.9,0.65l5.72,0.48c2.85,0.25,5.4,0.51,7.65,0.78
			c2.25,0.27,4.23,0.62,5.94,1.04c2.85,0.72,4.95,1.75,6.31,3.08c1.36,1.34,2.04,3.12,2.04,5.35c0,2.15-0.59,4.05-1.78,5.68
			c-1.19,1.63-2.81,3.01-4.86,4.12c-2.05,1.11-4.46,1.96-7.2,2.53c-2.75,0.57-5.69,0.85-8.84,0.85c-3.42,0-6.42-0.23-9-0.69
			c-2.59-0.46-4.75-0.97-6.5-1.52c-1.75-0.56-3.08-1.07-3.99-1.54c-0.92-0.47-1.41-0.73-1.49-0.78c-0.45-0.25-0.67-0.64-0.67-1.19
			c0-0.42,0.15-0.76,0.45-1.02c0.3-0.26,0.62-0.39,0.97-0.39c0.27,0,0.52,0.07,0.74,0.22c0.02,0,0.45,0.22,1.28,0.65
			c0.83,0.43,2.07,0.91,3.71,1.43s3.68,0.99,6.11,1.41c2.43,0.42,5.25,0.63,8.47,0.63c3.19,0,6.02-0.26,8.47-0.78
			s4.51-1.24,6.18-2.17s2.93-2.02,3.79-3.27c0.85-1.25,1.28-2.61,1.28-4.07c0-0.87-0.15-1.62-0.46-2.25s-0.74-1.18-1.28-1.63
			c-0.54-0.46-1.19-0.85-1.95-1.17s-1.58-0.59-2.47-0.82c-0.94-0.25-1.95-0.46-3.03-0.63c-1.08-0.17-2.18-0.32-3.32-0.45
			c-1.14-0.12-2.28-0.24-3.43-0.33c-1.15-0.1-2.28-0.2-3.4-0.3l-5.72-0.48c-4.51-0.37-8.44-0.95-11.79-1.73
			c-3.35-0.78-6.15-1.78-8.37-3.01c-2.23-1.23-3.9-2.69-5.01-4.4s-1.67-3.7-1.67-5.98c0-2.33,0.53-4.46,1.58-6.41
			s2.49-3.69,4.31-5.25c1.82-1.56,3.95-2.91,6.39-4.07s5.04-2.11,7.82-2.88s5.64-1.34,8.61-1.73c2.97-0.38,5.89-0.58,8.76-0.58
			c3.59,0,6.71,0.22,9.38,0.65s4.94,0.99,6.83,1.67c1.89,0.68,3.45,1.45,4.66,2.32c1.21,0.87,2.19,1.72,2.93,2.56
			c1.76,2.05,2.64,4.39,2.64,7.02C232.65,78.32,232.56,79.15,232.39,79.94z"/>
		<path class="st10" d="M257.57,108.57c-0.1,0.2-0.3,0.61-0.61,1.24s-0.71,1.36-1.19,2.17s-1.05,1.67-1.69,2.56
			s-1.36,1.71-2.15,2.45c-0.79,0.74-1.65,1.36-2.56,1.84c-0.92,0.48-1.88,0.72-2.9,0.72c-1.44,0-2.64-0.46-3.62-1.37
			s-1.69-2.07-2.14-3.45c-0.84,1.41-1.84,2.53-3.01,3.36c-1.16,0.83-2.33,1.24-3.49,1.24c-0.92,0-1.75-0.17-2.49-0.5
			c-0.74-0.33-1.37-0.8-1.89-1.41c-0.52-0.61-0.92-1.32-1.21-2.14c-0.28-0.82-0.43-1.71-0.43-2.67c0-1.93,0.33-3.63,0.98-5.11
			c0.66-1.47,1.49-2.7,2.51-3.69c1.01-0.99,2.14-1.73,3.36-2.23s2.41-0.74,3.55-0.74c0.77,0,1.47,0.11,2.12,0.32
			c0.64,0.21,1.19,0.44,1.65,0.69c0.46,0.25,0.81,0.48,1.06,0.69c0.25,0.21,0.38,0.33,0.41,0.35c0.27,0.32,0.41,0.66,0.41,1
			c0,0.37-0.14,0.7-0.41,0.98c-0.27,0.28-0.59,0.43-0.97,0.43c-0.4,0-0.73-0.14-1-0.41c-0.05-0.05-0.16-0.14-0.33-0.28
			c-0.17-0.14-0.41-0.28-0.71-0.43c-0.3-0.15-0.65-0.28-1.06-0.39c-0.41-0.11-0.87-0.17-1.39-0.17c-0.77,0-1.58,0.17-2.45,0.52
			c-0.87,0.35-1.66,0.89-2.38,1.62s-1.32,1.65-1.8,2.75c-0.48,1.1-0.72,2.41-0.72,3.92c0,0.47,0.05,0.95,0.15,1.43
			c0.1,0.48,0.27,0.92,0.52,1.32c0.25,0.4,0.58,0.72,1,0.97c0.42,0.25,0.94,0.37,1.56,0.37c0.45,0,0.96-0.15,1.54-0.45
			s1.14-0.76,1.67-1.37c0.53-0.62,1.01-1.4,1.45-2.34c0.43-0.94,0.74-2.05,0.91-3.34c0.05-0.35,0.21-0.64,0.48-0.87
			s0.59-0.35,0.97-0.35c0.35,0,0.65,0.14,0.91,0.41s0.4,0.58,0.43,0.93c0.02,0.47,0.07,1.13,0.15,1.99c0.07,0.85,0.24,1.7,0.5,2.54
			c0.26,0.84,0.65,1.57,1.17,2.19c0.52,0.62,1.24,0.93,2.15,0.93c0.59,0,1.18-0.16,1.76-0.48c0.58-0.32,1.15-0.75,1.71-1.28
			c0.56-0.53,1.09-1.14,1.6-1.82c0.51-0.68,0.97-1.37,1.39-2.06s0.79-1.36,1.11-2.01c0.32-0.64,0.59-1.2,0.82-1.67
			c0.12-0.27,0.3-0.48,0.54-0.63c0.24-0.15,0.49-0.22,0.76-0.22c0.42,0,0.76,0.15,1.02,0.46c0.26,0.31,0.39,0.64,0.39,0.98
			C257.68,108.23,257.64,108.4,257.57,108.57z"/>
		<path class="st10" d="M276.13,108.65c-0.27,0.57-0.61,1.24-1.02,2.02s-0.87,1.59-1.39,2.43c-0.52,0.84-1.1,1.68-1.75,2.51
			c-0.64,0.83-1.34,1.57-2.1,2.23s-1.56,1.19-2.41,1.6c-0.85,0.41-1.76,0.61-2.73,0.61c-1.49,0-2.76-0.46-3.82-1.37
			c-1.06-0.92-1.97-2.12-2.71-3.6c-0.74-1.49-1.34-3.17-1.8-5.07c-0.46-1.89-0.81-3.82-1.06-5.79s-0.41-3.88-0.5-5.74
			s-0.13-3.5-0.13-4.94c0-2.08,0.07-4.23,0.2-6.46c0.14-2.23,0.35-4.41,0.65-6.54c0.3-2.13,0.67-4.15,1.13-6.05
			c0.46-1.91,1-3.58,1.63-5.01c0.63-1.44,1.36-2.57,2.17-3.42c0.82-0.84,1.75-1.26,2.78-1.26c0.82,0,1.55,0.19,2.21,0.58
			c0.66,0.38,1.21,1.01,1.65,1.88c0.45,0.87,0.79,1.99,1.04,3.38s0.37,3.08,0.37,5.09c0,2.48-0.26,5.03-0.78,7.67
			s-1.23,5.29-2.12,7.97s-1.94,5.34-3.16,8c-1.21,2.66-2.51,5.25-3.9,7.78c0.62,3.14,1.45,5.61,2.49,7.41s2.29,2.69,3.75,2.69
			c0.99,0,1.94-0.39,2.86-1.17s1.76-1.7,2.53-2.77s1.44-2.15,2.02-3.25c0.58-1.1,1.03-1.99,1.36-2.66c0.12-0.25,0.3-0.44,0.52-0.58
			c0.22-0.14,0.47-0.2,0.74-0.2c0.42,0,0.76,0.15,1.02,0.45c0.26,0.3,0.39,0.63,0.39,1C276.28,108.2,276.23,108.4,276.13,108.65z
			 M257.53,93.72c0,1.58,0.04,3.11,0.11,4.57c0.07,1.46,0.17,2.86,0.3,4.2c1.04-2.01,2.03-4.14,2.97-6.41
			c0.94-2.27,1.77-4.56,2.49-6.87c0.72-2.31,1.29-4.62,1.73-6.91c0.43-2.29,0.65-4.47,0.65-6.55c0-2.92-0.24-5.01-0.71-6.28
			c-0.47-1.26-1.1-1.89-1.89-1.89c-0.52,0-1.02,0.36-1.5,1.08c-0.48,0.72-0.93,1.7-1.36,2.93c-0.42,1.24-0.8,2.7-1.15,4.38
			c-0.35,1.68-0.64,3.49-0.87,5.42c-0.24,1.93-0.42,3.95-0.56,6.05C257.6,89.55,257.53,91.64,257.53,93.72z"/>
		<path class="st10" d="M302.31,108.57c-0.1,0.2-0.3,0.61-0.61,1.24c-0.31,0.63-0.71,1.36-1.19,2.17c-0.48,0.82-1.05,1.67-1.69,2.56
			s-1.36,1.71-2.15,2.45c-0.79,0.74-1.65,1.36-2.56,1.84c-0.92,0.48-1.88,0.72-2.9,0.72c-1.44,0-2.64-0.46-3.62-1.37
			c-0.98-0.92-1.69-2.07-2.14-3.45c-0.84,1.41-1.84,2.53-3.01,3.36c-1.16,0.83-2.33,1.24-3.49,1.24c-0.92,0-1.75-0.17-2.49-0.5
			c-0.74-0.33-1.37-0.8-1.89-1.41c-0.52-0.61-0.92-1.32-1.21-2.14c-0.28-0.82-0.43-1.71-0.43-2.67c0-1.93,0.33-3.63,0.98-5.11
			c0.66-1.47,1.49-2.7,2.51-3.69c1.01-0.99,2.14-1.73,3.36-2.23c1.23-0.5,2.41-0.74,3.55-0.74c0.77,0,1.47,0.11,2.12,0.32
			c0.64,0.21,1.19,0.44,1.65,0.69c0.46,0.25,0.81,0.48,1.06,0.69c0.25,0.21,0.38,0.33,0.41,0.35c0.27,0.32,0.41,0.66,0.41,1
			c0,0.37-0.14,0.7-0.41,0.98c-0.27,0.28-0.59,0.43-0.97,0.43c-0.4,0-0.73-0.14-1-0.41c-0.05-0.05-0.16-0.14-0.33-0.28
			c-0.17-0.14-0.41-0.28-0.71-0.43c-0.3-0.15-0.65-0.28-1.06-0.39c-0.41-0.11-0.87-0.17-1.39-0.17c-0.77,0-1.58,0.17-2.45,0.52
			c-0.87,0.35-1.66,0.89-2.38,1.62c-0.72,0.73-1.32,1.65-1.8,2.75c-0.48,1.1-0.72,2.41-0.72,3.92c0,0.47,0.05,0.95,0.15,1.43
			c0.1,0.48,0.27,0.92,0.52,1.32s0.58,0.72,1,0.97c0.42,0.25,0.94,0.37,1.56,0.37c0.45,0,0.96-0.15,1.54-0.45s1.14-0.76,1.67-1.37
			c0.53-0.62,1.01-1.4,1.45-2.34c0.43-0.94,0.74-2.05,0.91-3.34c0.05-0.35,0.21-0.64,0.48-0.87s0.59-0.35,0.97-0.35
			c0.35,0,0.65,0.14,0.91,0.41c0.26,0.27,0.4,0.58,0.43,0.93c0.02,0.47,0.07,1.13,0.15,1.99c0.07,0.85,0.24,1.7,0.5,2.54
			c0.26,0.84,0.65,1.57,1.17,2.19s1.24,0.93,2.15,0.93c0.59,0,1.18-0.16,1.76-0.48c0.58-0.32,1.15-0.75,1.71-1.28
			c0.56-0.53,1.09-1.14,1.6-1.82c0.51-0.68,0.97-1.37,1.39-2.06s0.79-1.36,1.11-2.01c0.32-0.64,0.59-1.2,0.82-1.67
			c0.12-0.27,0.3-0.48,0.54-0.63c0.24-0.15,0.49-0.22,0.76-0.22c0.42,0,0.76,0.15,1.02,0.46c0.26,0.31,0.39,0.64,0.39,0.98
			C302.42,108.23,302.39,108.4,302.31,108.57z"/>
		<path class="st10" d="M317.16,124.43c0.15,2.01,0.22,4.41,0.22,7.2c0,3-0.19,5.75-0.56,8.26s-0.92,4.68-1.63,6.5
			c-0.72,1.82-1.61,3.24-2.67,4.25c-1.06,1.01-2.29,1.52-3.68,1.52c-0.69,0-1.35-0.16-1.97-0.48c-0.62-0.32-1.16-0.78-1.62-1.37
			c-0.46-0.59-0.82-1.3-1.08-2.12c-0.26-0.82-0.39-1.73-0.39-2.75c0-1.51,0.18-3.11,0.54-4.79c0.36-1.68,0.95-3.44,1.76-5.27
			c0.82-1.83,1.89-3.74,3.23-5.74s2.98-4.07,4.94-6.22c-0.1-1.06-0.23-2.05-0.39-2.97c-0.16-0.92-0.37-1.71-0.61-2.38
			c-0.25-0.67-0.54-1.19-0.87-1.56c-0.33-0.37-0.74-0.56-1.21-0.56c-0.15,0-0.32,0.02-0.52,0.07c-0.57,0.67-1.08,1.19-1.54,1.56
			c-0.46,0.37-0.87,0.66-1.24,0.85c-0.37,0.2-0.69,0.32-0.95,0.37c-0.26,0.05-0.45,0.07-0.58,0.07c-0.42,0-0.82-0.12-1.21-0.35
			c-0.38-0.24-0.58-0.67-0.58-1.32c0-0.22,0.08-0.51,0.24-0.85c0.16-0.35,0.43-0.71,0.8-1.1c0.37-0.38,0.86-0.74,1.47-1.08
			s1.34-0.59,2.21-0.76c1.63-1.76,2.91-3.37,3.82-4.85c0.92-1.47,1.37-2.85,1.37-4.14c0-1.11-0.35-2.01-1.04-2.67
			c-0.69-0.67-1.57-1-2.64-1c-1.49,0-2.97,0.69-4.46,2.08c-1.49,1.39-2.82,3.3-4.01,5.76c-0.27,0.54-0.71,0.82-1.3,0.82
			c-0.42,0-0.76-0.15-1-0.45s-0.37-0.62-0.37-0.97c0-0.22,0.05-0.42,0.15-0.59c1.46-3,3.14-5.32,5.05-6.98
			c1.91-1.66,3.9-2.49,5.98-2.49c0.84,0,1.65,0.15,2.43,0.45c0.78,0.3,1.47,0.72,2.06,1.28c0.59,0.56,1.06,1.24,1.41,2.04
			c0.35,0.8,0.52,1.73,0.52,2.77c0,0.87-0.12,1.7-0.35,2.51c-0.24,0.8-0.55,1.58-0.95,2.34s-0.85,1.48-1.37,2.17
			s-1.05,1.36-1.6,2.01c0.67,0.3,1.22,0.72,1.65,1.26c0.43,0.54,0.79,1.15,1.08,1.82c0.28,0.67,0.5,1.36,0.65,2.08
			c0.15,0.72,0.27,1.41,0.37,2.08c0.94-1.01,1.92-2.09,2.93-3.23c1.01-1.14,1.99-2.29,2.93-3.45s1.8-2.31,2.58-3.43
			s1.39-2.18,1.84-3.17c0.12-0.27,0.3-0.48,0.52-0.61c0.22-0.14,0.47-0.2,0.74-0.2c0.42,0,0.76,0.14,1.02,0.43
			c0.26,0.28,0.39,0.6,0.39,0.95c0,0.2-0.04,0.38-0.11,0.56c-0.54,1.24-1.31,2.57-2.3,3.99c-0.99,1.42-2.07,2.85-3.23,4.27
			s-2.35,2.79-3.56,4.1S318.18,123.41,317.16,124.43z M314.53,127.4c-1.56,1.91-2.85,3.7-3.86,5.38c-1.01,1.68-1.83,3.27-2.43,4.75
			c-0.61,1.49-1.03,2.87-1.28,4.14c-0.25,1.27-0.37,2.44-0.37,3.51c0,1.26,0.22,2.28,0.67,3.04c0.45,0.77,0.99,1.15,1.63,1.15
			c0.87,0,1.65-0.45,2.36-1.34c0.71-0.89,1.31-2.11,1.8-3.66c0.5-1.55,0.88-3.37,1.15-5.48s0.41-4.37,0.41-6.8
			c0-0.64-0.01-1.37-0.02-2.17C314.57,129.14,314.55,128.29,314.53,127.4z"/>
		<path class="st10" d="M355.75,108.57c-0.1,0.2-0.3,0.61-0.61,1.24s-0.71,1.36-1.19,2.17s-1.05,1.67-1.69,2.56
			s-1.36,1.71-2.15,2.45c-0.79,0.74-1.65,1.36-2.56,1.84c-0.92,0.48-1.88,0.72-2.9,0.72c-1.44,0-2.64-0.46-3.62-1.37
			s-1.69-2.07-2.14-3.45c-0.84,1.41-1.84,2.53-3.01,3.36c-1.16,0.83-2.33,1.24-3.49,1.24c-0.92,0-1.75-0.17-2.49-0.5
			c-0.74-0.33-1.37-0.8-1.89-1.41c-0.52-0.61-0.92-1.32-1.21-2.14c-0.28-0.82-0.43-1.71-0.43-2.67c0-1.93,0.33-3.63,0.98-5.11
			c0.66-1.47,1.49-2.7,2.51-3.69s2.14-1.73,3.36-2.23s2.41-0.74,3.55-0.74c0.77,0,1.47,0.11,2.12,0.32
			c0.64,0.21,1.19,0.44,1.65,0.69c0.46,0.25,0.81,0.48,1.06,0.69c0.25,0.21,0.38,0.33,0.41,0.35c0.27,0.32,0.41,0.66,0.41,1
			c0,0.37-0.14,0.7-0.41,0.98c-0.27,0.28-0.59,0.43-0.97,0.43c-0.4,0-0.73-0.14-1-0.41c-0.05-0.05-0.16-0.14-0.33-0.28
			c-0.17-0.14-0.41-0.28-0.71-0.43c-0.3-0.15-0.65-0.28-1.06-0.39c-0.41-0.11-0.87-0.17-1.39-0.17c-0.77,0-1.58,0.17-2.45,0.52
			c-0.87,0.35-1.66,0.89-2.38,1.62c-0.72,0.73-1.32,1.65-1.8,2.75c-0.48,1.1-0.72,2.41-0.72,3.92c0,0.47,0.05,0.95,0.15,1.43
			c0.1,0.48,0.27,0.92,0.52,1.32s0.58,0.72,1,0.97c0.42,0.25,0.94,0.37,1.56,0.37c0.45,0,0.96-0.15,1.54-0.45
			c0.58-0.3,1.14-0.76,1.67-1.37c0.53-0.62,1.01-1.4,1.45-2.34c0.43-0.94,0.74-2.05,0.91-3.34c0.05-0.35,0.21-0.64,0.48-0.87
			s0.59-0.35,0.97-0.35c0.35,0,0.65,0.14,0.91,0.41c0.26,0.27,0.4,0.58,0.43,0.93c0.02,0.47,0.07,1.13,0.15,1.99
			c0.07,0.85,0.24,1.7,0.5,2.54c0.26,0.84,0.65,1.57,1.17,2.19s1.24,0.93,2.15,0.93c0.59,0,1.18-0.16,1.76-0.48
			c0.58-0.32,1.15-0.75,1.71-1.28c0.56-0.53,1.09-1.14,1.6-1.82c0.51-0.68,0.97-1.37,1.39-2.06c0.42-0.69,0.79-1.36,1.11-2.01
			c0.32-0.64,0.59-1.2,0.82-1.67c0.12-0.27,0.3-0.48,0.54-0.63c0.24-0.15,0.49-0.22,0.76-0.22c0.42,0,0.76,0.15,1.02,0.46
			c0.26,0.31,0.39,0.64,0.39,0.98C355.86,108.23,355.82,108.4,355.75,108.57z"/>
		<path class="st10" d="M357.08,103.67c-0.1,0.67-0.22,1.29-0.37,1.88c-0.15,0.58-0.29,1.09-0.43,1.52s-0.25,0.79-0.35,1.06
			c-0.1,0.27-0.16,0.42-0.19,0.45c-0.25,0.57-0.68,0.85-1.3,0.85c-0.35,0-0.67-0.13-0.97-0.39s-0.45-0.59-0.45-0.98
			c0-0.15,0.02-0.26,0.07-0.33c0.05-0.07,0.12-0.22,0.22-0.45s0.22-0.59,0.37-1.11s0.33-1.32,0.56-2.41c-0.42,0-0.85-0.01-1.3-0.04
			s-0.86-0.11-1.24-0.26c-0.38-0.15-0.7-0.38-0.95-0.71c-0.25-0.32-0.37-0.77-0.37-1.34c0-0.42,0.12-0.99,0.35-1.71
			c0.24-0.72,0.55-1.42,0.95-2.12s0.84-1.29,1.34-1.8c0.5-0.51,0.99-0.76,1.49-0.76c0.57,0,1.03,0.21,1.39,0.63
			c0.36,0.42,0.64,0.93,0.84,1.54c0.2,0.61,0.34,1.24,0.43,1.91c0.09,0.67,0.13,1.25,0.13,1.75c0.42,0,0.84-0.01,1.24-0.02
			c0.41-0.01,0.8-0.02,1.17-0.02c1.41,0,2.49,0.31,3.23,0.93c0.74,0.62,1.11,1.63,1.11,3.04c0,0.57-0.04,1.16-0.11,1.78
			c-0.07,0.62-0.16,1.26-0.26,1.91c-0.1,0.66-0.19,1.31-0.26,1.95c-0.07,0.64-0.11,1.27-0.11,1.89c0,0.89,0.12,1.63,0.37,2.21
			s0.56,1.05,0.93,1.39c0.37,0.35,0.77,0.59,1.19,0.72c0.42,0.14,0.8,0.2,1.15,0.2c1.06,0,2.07-0.35,3.01-1.04s1.81-1.53,2.6-2.51
			c0.79-0.98,1.5-2.01,2.14-3.1c0.63-1.09,1.16-2.04,1.58-2.86c0.12-0.22,0.3-0.4,0.52-0.52c0.22-0.12,0.46-0.19,0.71-0.19
			c0.45,0,0.79,0.14,1.04,0.43c0.25,0.28,0.37,0.6,0.37,0.95c0,0.25-0.05,0.47-0.15,0.67c-0.57,1.01-1.23,2.16-1.99,3.43
			c-0.76,1.27-1.62,2.47-2.58,3.58c-0.97,1.11-2.05,2.05-3.25,2.82c-1.2,0.77-2.52,1.15-3.95,1.15c-0.89,0-1.73-0.17-2.53-0.5
			c-0.79-0.33-1.48-0.82-2.06-1.45s-1.05-1.41-1.39-2.34c-0.35-0.93-0.52-1.97-0.52-3.14c0-1.24,0.12-2.47,0.37-3.69
			c0.25-1.23,0.37-2.4,0.37-3.51c0-0.47-0.11-0.82-0.32-1.06s-0.67-0.35-1.39-0.35c-0.35,0-0.72,0-1.13,0
			C357.99,103.63,357.55,103.65,357.08,103.67z M354.59,100.92c0-0.17-0.01-0.4-0.02-0.69c-0.01-0.28-0.04-0.56-0.07-0.84
			c-0.04-0.27-0.09-0.51-0.15-0.71s-0.13-0.3-0.2-0.3c-0.07,0-0.17,0.09-0.28,0.28c-0.11,0.19-0.23,0.41-0.35,0.67
			s-0.24,0.54-0.33,0.84s-0.17,0.54-0.22,0.74H354.59z"/>
	</g>
	<g>
		<path class="st10" d="M125.5,133.18c0.46,0,0.89,0.09,1.3,0.26c0.41,0.18,0.76,0.41,1.07,0.71c0.3,0.3,0.54,0.66,0.72,1.06
			c0.18,0.41,0.26,0.84,0.26,1.3c0,0.46-0.09,0.89-0.26,1.29c-0.18,0.4-0.41,0.76-0.71,1.06c-0.3,0.3-0.66,0.54-1.06,0.71
			c-0.41,0.17-0.85,0.26-1.32,0.26h-1.99v1.84c0,0.17-0.06,0.31-0.18,0.43s-0.27,0.17-0.44,0.17c-0.18,0-0.32-0.06-0.44-0.18
			c-0.12-0.12-0.17-0.26-0.17-0.43v-7.89c0-0.09,0.02-0.16,0.05-0.24c0.03-0.07,0.08-0.14,0.13-0.2c0.05-0.06,0.12-0.1,0.19-0.13
			c0.07-0.03,0.15-0.05,0.24-0.05H125.5z M123.5,134.41v4.2h2.01c0.3,0,0.58-0.06,0.84-0.18c0.26-0.12,0.48-0.27,0.67-0.47
			c0.19-0.19,0.33-0.42,0.44-0.67c0.11-0.25,0.16-0.51,0.16-0.77s-0.05-0.52-0.16-0.78c-0.11-0.25-0.25-0.48-0.44-0.68
			c-0.19-0.2-0.41-0.36-0.66-0.48c-0.25-0.12-0.53-0.18-0.83-0.18H123.5z"/>
		<path class="st10" d="M135.09,140.36h-4.38l-0.65,1.56c-0.03,0.08-0.08,0.15-0.14,0.21c-0.06,0.06-0.13,0.1-0.2,0.13
			c-0.07,0.03-0.15,0.04-0.23,0.04c-0.08,0-0.16-0.02-0.25-0.06c-0.17-0.07-0.27-0.18-0.32-0.33c-0.05-0.15-0.04-0.31,0.03-0.47
			l3.39-7.87c0.11-0.25,0.3-0.38,0.56-0.38c0.12,0,0.23,0.03,0.33,0.1c0.1,0.06,0.17,0.16,0.22,0.27l3.41,7.87
			c0.07,0.16,0.08,0.31,0.03,0.47c-0.05,0.16-0.15,0.27-0.31,0.33c-0.16,0.07-0.32,0.08-0.48,0.02c-0.16-0.06-0.28-0.17-0.35-0.33
			L135.09,140.36z M131.21,139.13h3.37l-1.68-3.99L131.21,139.13z"/>
		<path class="st10" d="M141.06,138.22c-0.4-0.08-0.78-0.19-1.13-0.32c-0.36-0.13-0.67-0.31-0.94-0.51
			c-0.27-0.21-0.48-0.45-0.64-0.73c-0.16-0.28-0.23-0.61-0.23-0.99c0-0.38,0.08-0.73,0.25-1.05c0.16-0.31,0.38-0.58,0.65-0.8
			s0.58-0.39,0.93-0.52c0.35-0.12,0.71-0.18,1.08-0.18c0.28,0,0.55,0.03,0.82,0.09c0.27,0.06,0.52,0.14,0.75,0.25
			c0.23,0.11,0.45,0.25,0.64,0.42c0.19,0.17,0.35,0.36,0.48,0.58c0.07,0.12,0.09,0.24,0.06,0.36c-0.03,0.12-0.09,0.22-0.16,0.29
			c-0.04,0.04-0.09,0.08-0.16,0.1c-0.06,0.03-0.13,0.04-0.2,0.05c-0.07,0-0.14,0-0.21-0.02c-0.07-0.02-0.14-0.05-0.21-0.1
			c-0.13-0.14-0.26-0.26-0.39-0.36c-0.13-0.1-0.26-0.18-0.41-0.24c-0.14-0.06-0.29-0.11-0.45-0.14c-0.16-0.03-0.34-0.04-0.54-0.04
			c-0.21,0-0.42,0.03-0.63,0.09c-0.2,0.06-0.38,0.14-0.54,0.26c-0.16,0.11-0.29,0.25-0.38,0.41c-0.09,0.16-0.14,0.35-0.14,0.55
			c0,0.23,0.06,0.42,0.18,0.57c0.12,0.15,0.28,0.27,0.47,0.38c0.2,0.1,0.42,0.19,0.67,0.25c0.25,0.07,0.51,0.13,0.77,0.19
			c0.34,0.09,0.67,0.21,1,0.34c0.32,0.13,0.61,0.3,0.86,0.5c0.25,0.2,0.45,0.44,0.61,0.72c0.15,0.28,0.23,0.61,0.23,1
			c0,0.41-0.08,0.78-0.25,1.12c-0.16,0.34-0.39,0.63-0.67,0.88c-0.28,0.24-0.62,0.44-1,0.57c-0.38,0.14-0.78,0.21-1.21,0.21
			c-0.35,0-0.69-0.04-1.01-0.13s-0.61-0.21-0.88-0.37c-0.27-0.16-0.5-0.34-0.7-0.55c-0.2-0.21-0.36-0.44-0.47-0.68
			c-0.05-0.1-0.07-0.19-0.08-0.28c0-0.09,0.01-0.17,0.03-0.24c0.03-0.07,0.07-0.13,0.12-0.19c0.05-0.05,0.11-0.1,0.18-0.13
			c0.15-0.08,0.3-0.1,0.43-0.05c0.13,0.05,0.27,0.16,0.41,0.34c0.19,0.33,0.47,0.59,0.82,0.78c0.35,0.19,0.75,0.28,1.2,0.28
			c0.22,0,0.44-0.03,0.67-0.1c0.22-0.06,0.42-0.16,0.59-0.28c0.17-0.13,0.31-0.28,0.42-0.47c0.11-0.19,0.16-0.4,0.16-0.64
			c0-0.24-0.05-0.43-0.16-0.59c-0.11-0.16-0.25-0.29-0.43-0.39c-0.18-0.1-0.37-0.19-0.59-0.26
			C141.51,138.35,141.29,138.28,141.06,138.22z"/>
		<path class="st10" d="M149.27,134.41v7.27c0,0.09-0.02,0.16-0.05,0.24s-0.08,0.14-0.13,0.19c-0.05,0.05-0.12,0.1-0.2,0.13
			c-0.08,0.03-0.16,0.05-0.24,0.05c-0.17,0-0.32-0.06-0.43-0.18c-0.12-0.12-0.18-0.26-0.18-0.43v-7.27h-2.44
			c-0.09,0-0.16-0.02-0.24-0.05c-0.07-0.03-0.14-0.08-0.2-0.13c-0.06-0.06-0.1-0.12-0.13-0.2c-0.03-0.07-0.05-0.15-0.05-0.24
			c0-0.17,0.06-0.32,0.18-0.43c0.12-0.12,0.26-0.18,0.43-0.18h6.1c0.18,0,0.32,0.06,0.44,0.18c0.12,0.12,0.18,0.27,0.18,0.44
			c0,0.17-0.06,0.32-0.18,0.43c-0.12,0.12-0.27,0.18-0.44,0.18H149.27z"/>
		<path class="st10" d="M154.17,142.29c-0.17-0.01-0.3-0.08-0.41-0.2s-0.16-0.26-0.16-0.42v-7.87c0-0.18,0.06-0.32,0.18-0.44
			c0.12-0.12,0.27-0.17,0.44-0.17h5.18c0.17,0,0.31,0.06,0.43,0.18c0.12,0.12,0.17,0.26,0.17,0.43c0,0.17-0.06,0.32-0.17,0.44
			c-0.12,0.12-0.26,0.18-0.43,0.18h-4.57v2.6h3.52c0.09,0,0.17,0.02,0.24,0.05c0.08,0.03,0.14,0.08,0.2,0.14
			c0.06,0.06,0.1,0.12,0.13,0.2c0.03,0.07,0.05,0.15,0.05,0.24c0,0.17-0.06,0.31-0.18,0.43c-0.12,0.12-0.27,0.17-0.44,0.17h-3.52
			v2.82h4.57c0.09,0,0.16,0.02,0.24,0.05c0.07,0.03,0.14,0.08,0.19,0.14c0.05,0.06,0.1,0.12,0.13,0.2c0.03,0.07,0.05,0.15,0.05,0.24
			c0,0.18-0.06,0.32-0.17,0.44c-0.12,0.12-0.26,0.18-0.43,0.17H154.17z"/>
		<path class="st10" d="M163.17,141.05l4.34,0.01c0.09,0,0.16,0.02,0.24,0.05c0.07,0.03,0.14,0.08,0.19,0.13
			c0.05,0.05,0.1,0.12,0.13,0.19c0.03,0.07,0.05,0.15,0.05,0.24c0,0.09-0.02,0.17-0.05,0.24c-0.03,0.08-0.07,0.14-0.13,0.2
			c-0.05,0.05-0.12,0.1-0.19,0.13c-0.07,0.03-0.15,0.05-0.24,0.05h-5.04c-0.15-0.02-0.28-0.08-0.38-0.2
			c-0.1-0.11-0.15-0.25-0.15-0.41v-7.89c0-0.09,0.02-0.17,0.05-0.24c0.03-0.08,0.08-0.14,0.13-0.2c0.05-0.05,0.12-0.1,0.19-0.13
			c0.07-0.03,0.15-0.05,0.24-0.05c0.17,0,0.32,0.06,0.44,0.17c0.12,0.12,0.18,0.26,0.18,0.44V141.05z"/>
		<path class="st10" d="M170.52,142.29c-0.17-0.01-0.3-0.08-0.41-0.2s-0.16-0.26-0.16-0.42v-7.87c0-0.18,0.06-0.32,0.18-0.44
			c0.12-0.12,0.27-0.17,0.44-0.17h5.18c0.17,0,0.31,0.06,0.43,0.18c0.12,0.12,0.17,0.26,0.17,0.43c0,0.17-0.06,0.32-0.17,0.44
			c-0.12,0.12-0.26,0.18-0.43,0.18h-4.57v2.6h3.52c0.09,0,0.17,0.02,0.24,0.05c0.08,0.03,0.14,0.08,0.2,0.14
			c0.06,0.06,0.1,0.12,0.13,0.2c0.03,0.07,0.05,0.15,0.05,0.24c0,0.17-0.06,0.31-0.18,0.43c-0.12,0.12-0.27,0.17-0.44,0.17h-3.52
			v2.82h4.57c0.09,0,0.16,0.02,0.24,0.05c0.07,0.03,0.14,0.08,0.19,0.14c0.05,0.06,0.1,0.12,0.13,0.2c0.03,0.07,0.05,0.15,0.05,0.24
			c0,0.18-0.06,0.32-0.17,0.44c-0.12,0.12-0.26,0.18-0.43,0.17H170.52z"/>
		<path class="st10" d="M181.52,133.18c0.46,0,0.89,0.08,1.3,0.25c0.41,0.17,0.76,0.39,1.07,0.69c0.3,0.29,0.54,0.64,0.72,1.03
			s0.26,0.83,0.26,1.29c0,0.35-0.05,0.67-0.15,0.99c-0.1,0.31-0.24,0.59-0.42,0.85c-0.18,0.26-0.4,0.49-0.65,0.69
			c-0.25,0.2-0.53,0.36-0.83,0.48l1.72,1.79c0.06,0.06,0.11,0.13,0.14,0.21c0.03,0.08,0.05,0.16,0.04,0.23
			c0,0.08-0.02,0.16-0.05,0.23s-0.08,0.14-0.14,0.2c-0.12,0.12-0.26,0.18-0.41,0.17c-0.15,0-0.28-0.06-0.41-0.18l-2.33-2.41h-1.88
			v1.99c0,0.17-0.06,0.31-0.18,0.43s-0.27,0.17-0.44,0.17c-0.17,0-0.31-0.06-0.43-0.17c-0.12-0.12-0.18-0.26-0.18-0.43v-7.89
			c0-0.09,0.02-0.16,0.05-0.24c0.03-0.07,0.08-0.14,0.13-0.2c0.05-0.06,0.12-0.1,0.19-0.13c0.07-0.03,0.15-0.05,0.24-0.05H181.52z
			 M179.52,134.41v4.05h2.01c0.3,0,0.58-0.05,0.84-0.16c0.26-0.11,0.48-0.26,0.67-0.44c0.19-0.19,0.33-0.4,0.44-0.65
			c0.11-0.25,0.16-0.51,0.16-0.78c0-0.27-0.05-0.53-0.16-0.78c-0.11-0.24-0.26-0.46-0.44-0.64c-0.19-0.19-0.41-0.33-0.67-0.44
			c-0.26-0.11-0.53-0.16-0.82-0.16H179.52z"/>
		<path class="st10" d="M187.89,130.3c0.06-0.06,0.13-0.11,0.21-0.14c0.08-0.03,0.16-0.05,0.23-0.05c0.08,0,0.16,0.02,0.23,0.05
			s0.14,0.07,0.21,0.13c0.06,0.06,0.11,0.13,0.14,0.21c0.03,0.08,0.05,0.15,0.05,0.23c0,0.08-0.02,0.15-0.05,0.23
			c-0.03,0.07-0.08,0.14-0.14,0.2l-1.03,1.05c-0.13,0.13-0.28,0.19-0.44,0.19c-0.17,0-0.31-0.06-0.43-0.19
			c-0.06-0.06-0.11-0.13-0.14-0.21c-0.03-0.08-0.05-0.15-0.05-0.23c0-0.08,0.02-0.16,0.05-0.23c0.03-0.08,0.08-0.14,0.14-0.21
			L187.89,130.3z M188.08,141.68c0,0.17-0.06,0.31-0.18,0.43c-0.12,0.12-0.27,0.17-0.44,0.17c-0.17,0-0.31-0.06-0.43-0.17
			c-0.12-0.12-0.18-0.26-0.18-0.43v-7.89c0-0.17,0.06-0.31,0.18-0.43c0.12-0.12,0.26-0.17,0.43-0.17c0.17,0,0.32,0.06,0.44,0.17
			c0.12,0.12,0.18,0.26,0.18,0.43V141.68z"/>
		<path class="st10" d="M195.85,140.36h-4.38l-0.65,1.56c-0.03,0.08-0.08,0.15-0.14,0.21c-0.06,0.06-0.13,0.1-0.2,0.13
			c-0.07,0.03-0.15,0.04-0.23,0.04c-0.08,0-0.16-0.02-0.25-0.06c-0.17-0.07-0.27-0.18-0.32-0.33c-0.05-0.15-0.04-0.31,0.03-0.47
			l3.39-7.87c0.11-0.25,0.3-0.38,0.56-0.38c0.12,0,0.23,0.03,0.33,0.1c0.1,0.06,0.17,0.16,0.22,0.27l3.41,7.87
			c0.07,0.16,0.08,0.31,0.03,0.47c-0.05,0.16-0.15,0.27-0.31,0.33c-0.16,0.07-0.32,0.08-0.48,0.02c-0.16-0.06-0.28-0.17-0.35-0.33
			L195.85,140.36z M191.97,139.13h3.37l-1.68-3.99L191.97,139.13z"/>
		<path class="st10" d="M209.81,134.49c0.12,0.12,0.19,0.26,0.19,0.42c0,0.16-0.06,0.31-0.19,0.43c-0.06,0.06-0.12,0.1-0.2,0.13
			c-0.08,0.03-0.15,0.05-0.23,0.05c-0.08,0-0.16-0.01-0.23-0.04c-0.08-0.03-0.14-0.07-0.2-0.13c-0.34-0.34-0.72-0.59-1.13-0.76
			c-0.41-0.17-0.85-0.25-1.29-0.25c-0.46,0-0.9,0.09-1.31,0.27c-0.41,0.18-0.77,0.42-1.08,0.73c-0.31,0.31-0.55,0.67-0.73,1.08
			c-0.18,0.41-0.27,0.86-0.27,1.33c0,0.45,0.09,0.89,0.26,1.3c0.17,0.41,0.41,0.77,0.71,1.08c0.3,0.31,0.66,0.56,1.07,0.75
			c0.41,0.18,0.85,0.28,1.33,0.28c0.45,0,0.88-0.07,1.29-0.23c0.41-0.16,0.79-0.41,1.14-0.76c0.06-0.06,0.12-0.1,0.2-0.13
			c0.08-0.03,0.15-0.04,0.23-0.04c0.08,0,0.16,0.01,0.23,0.04s0.14,0.07,0.2,0.12c0.06,0.06,0.11,0.12,0.14,0.2
			c0.03,0.08,0.05,0.16,0.05,0.23c0,0.08-0.02,0.15-0.05,0.23c-0.03,0.07-0.07,0.14-0.13,0.2c-0.46,0.46-0.97,0.81-1.54,1.03
			c-0.57,0.22-1.15,0.33-1.75,0.33c-0.64,0-1.23-0.12-1.79-0.36c-0.56-0.24-1.04-0.57-1.46-0.99c-0.41-0.42-0.74-0.91-0.99-1.47
			c-0.24-0.56-0.36-1.16-0.36-1.8c0-0.41,0.05-0.81,0.16-1.19c0.1-0.39,0.25-0.75,0.44-1.1c0.19-0.34,0.43-0.66,0.7-0.95
			c0.27-0.29,0.58-0.54,0.93-0.75c0.34-0.21,0.72-0.37,1.12-0.49c0.4-0.12,0.83-0.17,1.28-0.17c0.6,0,1.18,0.12,1.74,0.34
			C208.84,133.69,209.35,134.03,209.81,134.49z"/>
		<path class="st10" d="M215.15,133.18c0.46,0,0.89,0.08,1.3,0.25c0.41,0.17,0.76,0.39,1.07,0.69c0.3,0.29,0.54,0.64,0.72,1.03
			s0.26,0.83,0.26,1.29c0,0.35-0.05,0.67-0.15,0.99c-0.1,0.31-0.24,0.59-0.42,0.85c-0.18,0.26-0.4,0.49-0.65,0.69
			c-0.25,0.2-0.53,0.36-0.83,0.48l1.72,1.79c0.06,0.06,0.11,0.13,0.14,0.21c0.03,0.08,0.05,0.16,0.04,0.23
			c0,0.08-0.02,0.16-0.05,0.23s-0.08,0.14-0.14,0.2c-0.12,0.12-0.26,0.18-0.41,0.17c-0.15,0-0.28-0.06-0.41-0.18l-2.33-2.41h-1.88
			v1.99c0,0.17-0.06,0.31-0.18,0.43c-0.12,0.12-0.27,0.17-0.44,0.17c-0.17,0-0.31-0.06-0.43-0.17c-0.12-0.12-0.18-0.26-0.18-0.43
			v-7.89c0-0.09,0.02-0.16,0.05-0.24c0.03-0.07,0.08-0.14,0.13-0.2c0.05-0.06,0.12-0.1,0.19-0.13c0.07-0.03,0.15-0.05,0.24-0.05
			H215.15z M213.16,134.41v4.05h2.01c0.3,0,0.58-0.05,0.84-0.16c0.26-0.11,0.48-0.26,0.67-0.44c0.19-0.19,0.33-0.4,0.44-0.65
			c0.11-0.25,0.16-0.51,0.16-0.78c0-0.27-0.05-0.53-0.16-0.78c-0.11-0.24-0.26-0.46-0.44-0.64c-0.19-0.19-0.41-0.33-0.67-0.44
			c-0.26-0.11-0.53-0.16-0.82-0.16H213.16z"/>
		<path class="st10" d="M221.06,142.29c-0.17-0.01-0.3-0.08-0.41-0.2s-0.16-0.26-0.16-0.42v-7.87c0-0.18,0.06-0.32,0.18-0.44
			c0.12-0.12,0.27-0.17,0.44-0.17h5.18c0.17,0,0.31,0.06,0.43,0.18c0.12,0.12,0.17,0.26,0.17,0.43c0,0.17-0.06,0.32-0.17,0.44
			c-0.12,0.12-0.26,0.18-0.43,0.18h-4.57v2.6h3.52c0.09,0,0.17,0.02,0.24,0.05c0.08,0.03,0.14,0.08,0.2,0.14
			c0.06,0.06,0.1,0.12,0.13,0.2c0.03,0.07,0.05,0.15,0.05,0.24c0,0.17-0.06,0.31-0.18,0.43c-0.12,0.12-0.27,0.17-0.44,0.17h-3.52
			v2.82h4.57c0.09,0,0.16,0.02,0.24,0.05c0.07,0.03,0.14,0.08,0.19,0.14c0.05,0.06,0.1,0.12,0.13,0.2c0.03,0.07,0.05,0.15,0.05,0.24
			c0,0.18-0.06,0.32-0.17,0.44c-0.12,0.12-0.26,0.18-0.43,0.17H221.06z"/>
		<path class="st10" d="M234.21,140.36h-4.38l-0.65,1.56c-0.03,0.08-0.08,0.15-0.14,0.21c-0.06,0.06-0.13,0.1-0.2,0.13
			c-0.07,0.03-0.15,0.04-0.23,0.04c-0.08,0-0.16-0.02-0.25-0.06c-0.17-0.07-0.27-0.18-0.32-0.33c-0.05-0.15-0.04-0.31,0.03-0.47
			l3.39-7.87c0.11-0.25,0.3-0.38,0.56-0.38c0.12,0,0.23,0.03,0.33,0.1c0.1,0.06,0.17,0.16,0.22,0.27l3.41,7.87
			c0.07,0.16,0.08,0.31,0.03,0.47c-0.05,0.16-0.15,0.27-0.31,0.33c-0.16,0.07-0.32,0.08-0.48,0.02c-0.16-0.06-0.28-0.17-0.35-0.33
			L234.21,140.36z M230.33,139.13h3.37l-1.68-3.99L230.33,139.13z"/>
		<path class="st10" d="M239.95,134.41v7.27c0,0.09-0.02,0.16-0.05,0.24s-0.08,0.14-0.13,0.19c-0.05,0.05-0.12,0.1-0.2,0.13
			c-0.08,0.03-0.16,0.05-0.24,0.05c-0.17,0-0.32-0.06-0.43-0.18c-0.12-0.12-0.18-0.26-0.18-0.43v-7.27h-2.44
			c-0.09,0-0.16-0.02-0.24-0.05c-0.07-0.03-0.14-0.08-0.2-0.13c-0.06-0.06-0.1-0.12-0.13-0.2c-0.03-0.07-0.05-0.15-0.05-0.24
			c0-0.17,0.06-0.32,0.18-0.43c0.12-0.12,0.26-0.18,0.43-0.18h6.1c0.18,0,0.32,0.06,0.44,0.18c0.12,0.12,0.18,0.27,0.18,0.44
			c0,0.17-0.06,0.32-0.18,0.43c-0.12,0.12-0.27,0.18-0.44,0.18H239.95z"/>
		<path class="st10" d="M245.51,141.68c0,0.17-0.06,0.31-0.18,0.43c-0.12,0.12-0.27,0.17-0.44,0.17c-0.17,0-0.31-0.06-0.43-0.17
			s-0.18-0.26-0.18-0.43v-7.89c0-0.17,0.06-0.31,0.18-0.43c0.12-0.12,0.26-0.17,0.43-0.17c0.17,0,0.32,0.06,0.44,0.17
			c0.12,0.12,0.18,0.26,0.18,0.43V141.68z"/>
		<path class="st10" d="M247.08,134.03c-0.07-0.16-0.07-0.31,0-0.47c0.06-0.15,0.18-0.26,0.34-0.33c0.15-0.06,0.3-0.06,0.46,0
			c0.15,0.06,0.26,0.17,0.33,0.33l2.83,6.6l2.82-6.6c0.07-0.15,0.18-0.26,0.33-0.32c0.15-0.06,0.31-0.07,0.47,0
			c0.15,0.07,0.26,0.18,0.33,0.33c0.07,0.15,0.07,0.31,0,0.47l-3.39,7.88c-0.05,0.12-0.14,0.22-0.25,0.29
			c-0.11,0.07-0.23,0.1-0.36,0.09c-0.11-0.01-0.21-0.05-0.3-0.11c-0.09-0.06-0.16-0.15-0.22-0.27L247.08,134.03z"/>
		<path class="st10" d="M260.85,140.36h-4.38l-0.65,1.56c-0.03,0.08-0.08,0.15-0.14,0.21c-0.06,0.06-0.13,0.1-0.2,0.13
			c-0.07,0.03-0.15,0.04-0.23,0.04c-0.08,0-0.16-0.02-0.25-0.06c-0.17-0.07-0.27-0.18-0.32-0.33c-0.05-0.15-0.04-0.31,0.03-0.47
			l3.39-7.87c0.11-0.25,0.3-0.38,0.56-0.38c0.12,0,0.23,0.03,0.33,0.1c0.1,0.06,0.17,0.16,0.22,0.27l3.41,7.87
			c0.07,0.16,0.08,0.31,0.03,0.47c-0.05,0.16-0.15,0.27-0.31,0.33c-0.16,0.07-0.32,0.08-0.48,0.02c-0.16-0.06-0.28-0.17-0.35-0.33
			L260.85,140.36z M256.96,139.13h3.37l-1.68-3.99L256.96,139.13z"/>
	</g>
	<g>
		<g>
			<path class="st10" d="M192.33,32.72c14.17-10.92,31.85-15.7,47.66-23.63c-0.4-0.08-0.8-0.16-1.19-0.23
				c-3.12,6.62-5.96,13.61-10.89,19.14c-2.69,3.01-6.03,5.48-9.8,6.95c-4.33,1.69-8.95,1.49-13.45,0.66
				c-4.51-0.83-8.93-2.15-13.53-2.36c-0.64-0.03-1.83,0.9-0.67,0.96c4.53,0.21,8.9,1.56,13.35,2.36c4.4,0.79,8.92,0.99,13.24-0.33
				c7.92-2.41,13.64-8.55,17.6-15.58c2.19-3.89,3.97-7.99,5.87-12.02c0.24-0.51-1.04-0.31-1.19-0.23
				c-12.63,6.33-26.18,10.68-38.53,17.6c-3.42,1.92-6.72,4.05-9.83,6.45c-0.33,0.25-0.12,0.48,0.16,0.59
				C191.47,33.2,192.04,32.94,192.33,32.72L192.33,32.72z"/>
			<path class="st10" d="M211.85,37.16c8.07-1.32,16.29-3.07,23.02-7.99c2.21-1.62,4.14-3.65,5.78-5.84
				c1.73-2.32,3.32-5.06,3.67-7.98c0.4-3.25-1.15-5.82-3.91-7.46c-0.47-0.28-2.06,0.41-1.37,0.82c2.36,1.41,3.81,3.66,3.6,6.46
				c-0.2,2.68-1.54,5.2-3.05,7.38c-3.61,5.2-8.74,8.67-14.69,10.74c-4.15,1.44-8.49,2.23-12.81,2.94
				C211.28,36.36,210.66,37.36,211.85,37.16L211.85,37.16z"/>
			<path class="st10" d="M240.51,8.29c-1.41-3.06-4.69-4.33-7.84-4.79c-3.95-0.58-8.02-0.17-11.91,0.62
				c-3.25,0.66-6.65,1.56-9.53,3.27c-4.87,2.88-8,7.63-11.61,11.83c-3.65,4.23-9.05,7.61-10.52,13.32
				c-0.16,0.61,1.57,0.36,1.72-0.22c1.21-4.72,5.37-7.89,8.65-11.2c3.55-3.58,6.21-7.95,10.07-11.24c2.74-2.34,5.87-3.56,9.32-4.43
				c3.56-0.89,7.29-1.41,10.97-1.2c3.38,0.19,7.42,1.14,8.97,4.51C239.06,9.33,240.74,8.79,240.51,8.29L240.51,8.29z"/>
			<path class="st10" d="M239.92,8.69c-15.23-5.31-30.38,4.4-41.33,14.22c-3.11,2.79-6.05,5.75-8.9,8.8
				c-0.68,0.73,0.99,0.68,1.37,0.27c4.74-5.07,9.76-9.92,15.32-14.09c5.85-4.39,12.57-8.28,19.89-9.43
				c4.13-0.65,8.32-0.32,12.27,1.06C239.06,9.69,240.61,8.93,239.92,8.69L239.92,8.69z"/>
			<path class="st10" d="M193.4,32.81c13.59-2.23,26.97-6.21,37.97-14.79c3.31-2.58,6.32-5.51,9.08-8.68
				c0.29-0.33-0.25-0.46-0.46-0.49c-0.39-0.05-0.88,0.17-1.13,0.47c-4.54,5.21-9.85,9.69-15.86,13.13
				c-5.68,3.25-11.87,5.52-18.2,7.15c-3.68,0.94-7.41,1.67-11.15,2.29C192.83,32.01,192.21,33.01,193.4,32.81L193.4,32.81z"/>
		</g>
	</g>
	<g>
		<g>
			<path class="st11" d="M190.5,30.43c-0.42-0.15-0.89-0.14-1.33-0.1c-0.21,0.02-0.41,0.04-0.61,0.06
				c-0.11,0.01-0.21,0.02-0.32,0.03c-0.05,0-0.1,0.01-0.16,0.01c0.09,0-0.06,0-0.08,0c-0.25,0-0.52,0.06-0.73,0.2
				c-0.05,0.03-0.14,0.09-0.12,0.16c0.02,0.07,0.13,0.07,0.18,0.07c0.43,0.01,0.85-0.05,1.27-0.09c0.1-0.01,0.19-0.02,0.29-0.02
				c0.03,0,0.05,0,0.08,0c-0.04,0-0.04,0,0.01,0c0.05,0,0.11,0,0.16,0c0.18,0.01,0.33,0.03,0.51,0.1c0.09,0.03,0.24,0.01,0.33-0.01
				c0.13-0.02,0.27-0.06,0.39-0.12C190.48,30.65,190.72,30.51,190.5,30.43L190.5,30.43z"/>
		</g>
	</g>
	<g>
		<g>
			<path class="st10" d="M193.9,34.81c-0.05,0.02-0.09,0.04-0.14,0.05c-0.22,0.02-0.44,0.05-0.66,0.07
				c0.34,0.25,0.55,0.68,0.82,0.99c0.13,0.16,0.93-0.07,0.83-0.27c-0.42-0.87-0.96-1.64-0.99-2.64c-0.17,0.1-0.33,0.2-0.5,0.31
				c2.27-0.23,5.02,0.73,6.86,2.02c0.86,0.6,1.7,1.43,1.88,2.51c0.13,0.74,0.06,1.86-0.86,1.52c-1.7-0.62-3.18-2.37-4.38-3.65
				c-1.05-1.13-2.08-2.29-3-3.53c-0.13-0.18-0.93,0.1-0.83,0.27c0.79,1.4,1.42,2.91,2.02,4.39c0.76,1.87,1.6,3.9,1.78,5.93
				c0.05,0.57,0.16,1.78-0.68,1.3c-0.92-0.52-1.34-2.13-1.63-3.06c-0.87-2.84-1.51-6.06-1.51-9.02c-0.2,0.11-0.41,0.21-0.61,0.32
				c3.34-0.25,6.6,1.31,9.22,3.25c2.21,1.64,4.68,3.94,5.4,6.7c0.1,0.37,0.15,0.73,0.13,1.12c-0.04,0.73-0.13,0.84-0.82,1.17
				c-0.93,0.45-1.74,0.08-2.64-0.31c-1.51-0.66-2.87-1.58-4.11-2.67c-1.25-1.11-2.34-2.36-3.48-3.58c-1.28-1.37-2.7-2.6-3.75-4.17
				c-0.28,0.09-0.55,0.18-0.83,0.27c4.12,3.49,7.95,8.35,8.28,13.97c0.05,0.82,0.06,1.99-0.55,2.63c-0.95,0.99-3.1-0.37-3.96-0.96
				c-2.2-1.52-3.54-3.91-4.24-6.44c-1.53-5.49-0.45-11.09,1.15-16.42c0.94-3.13,1.97-6.49,1.45-9.79c-0.34-2.15-1.61-5.14-4.25-3.94
				c-2.84,1.29-3.39,5.23-3.07,7.98c0.44,3.8,2.89,6.95,4.14,10.49c0.08,0.24,0.93,0,0.86-0.23c-0.53-1.8-0.22-3.7-0.31-5.54
				c-0.1-2.03-0.24-4.08-0.78-6.05c-0.83-3.06-2.77-6.72-5.67-8.28c-1.87-1.01-5.01-1.22-5.93,1.18c-1.06,2.77,0.34,6.74,1.79,9.09
				c1.12,1.81,2.51,3.59,4.16,4.94c1.7,1.39,3.73,2.29,5.6,3.43c0.23,0.14,0.97-0.21,0.8-0.31c-1.69-1.03-3.52-1.86-5.12-3.05
				c-1.79-1.33-3.28-3.17-4.47-5.05c-1.01-1.59-1.64-3.27-1.97-5.12c-0.3-1.68-0.72-4.63,1.35-5.27c2.03-0.63,4.02,0.98,5.27,2.42
				c1.37,1.56,2.39,3.46,3.06,5.42c0.7,2.08,0.88,4.27,1.01,6.45c0.11,1.97-0.24,4.05,0.33,5.97c0.29-0.08,0.57-0.15,0.86-0.23
				c-1.13-3.18-3.21-6.01-3.95-9.33c-0.37-1.67-0.37-3.43,0.04-5.09c0.2-0.82,0.5-1.64,0.99-2.33c0.68-0.96,1.96-1.76,2.93-0.81
				c1.21,1.18,1.55,3.41,1.58,5.02c0.04,1.84-0.33,3.67-0.79,5.45c-0.78,3.02-1.89,5.95-2.34,9.06c-0.71,4.85-0.54,10.66,2.6,14.7
				c1.28,1.64,3.52,3.4,5.72,3.39c1.55,0,2.42-1.02,2.56-2.5c0.21-2.33-0.66-4.79-1.64-6.86c-1.56-3.3-3.93-5.95-6.69-8.29
				c-0.15-0.13-0.95,0.1-0.83,0.27c0.88,1.32,1.99,2.4,3.1,3.52c1.26,1.27,2.4,2.66,3.72,3.88c1.82,1.69,4.55,3.8,7.2,3.81
				c2.58,0.01,2.87-2.37,1.96-4.35c-1.15-2.51-3.44-4.59-5.68-6.12c-2.64-1.81-5.79-3.14-9.04-2.9c-0.17,0.01-0.61,0.08-0.61,0.32
				c0,2.29,0.53,4.55,0.97,6.78c0.24,1.25,0.55,2.51,1.07,3.68c0.37,0.85,0.93,1.93,1.98,1.97c0.52,0.02,1.09-0.18,1.36-0.65
				c0.38-0.65,0.16-1.65,0.03-2.33c-0.24-1.25-0.66-2.46-1.1-3.65c-0.73-1.97-1.54-3.99-2.58-5.82c-0.28,0.09-0.55,0.18-0.83,0.27
				c0.92,1.23,1.95,2.4,3,3.53c1.22,1.31,2.61,2.87,4.27,3.62c0.9,0.41,2.14,0.36,2.53-0.71c0.73-1.99-1.24-3.64-2.76-4.46
				c-1.94-1.05-4.38-1.76-6.6-1.53c-0.13,0.01-0.51,0.11-0.5,0.31c0.03,1,0.57,1.76,0.99,2.64c0.28-0.09,0.55-0.18,0.83-0.27
				c-0.27-0.32-0.49-0.74-0.82-0.99c-0.17-0.13-0.5-0.01-0.66,0.07c-0.01,0.01-0.03,0.01-0.04,0.02c-0.08,0.04-0.18,0.1-0.17,0.2
				c0,0.04,0,0.08,0.01,0.13C193.05,35.24,193.91,35.08,193.9,34.81L193.9,34.81z"/>
			<path class="st10" d="M192.11,29.47c-0.19-0.26,0.49-1.34,0.6-1.55c0.43-0.83,0.9-1.64,1.36-2.45c1.05-1.84,1.82-3.89,1.99-6.02
				c0.11-1.44-0.3-4.84-2.54-4.04c-1.8,0.65-2.32,3.63-2.58,5.23c-0.26,1.66-0.33,3.35-0.39,5.03c-0.03,0.97-0.04,1.95-0.01,2.92
				c0.02,0.68-0.1,1.64,0.26,2.24c0.15,0.24,0.96-0.07,0.86-0.23c-0.27-0.44-0.22-1.02-0.24-1.52c-0.03-0.73-0.05-1.46-0.04-2.19
				c0.01-1.49,0.07-2.98,0.19-4.47c0.11-1.39,0.3-2.78,0.73-4.11c0.25-0.8,0.54-1.69,1.11-2.32c0.87-0.98,1.58,1.18,1.71,1.8
				c0.26,1.3,0.04,2.65-0.3,3.92c-0.44,1.65-1.12,3.03-1.95,4.5c-0.43,0.75-0.86,1.5-1.23,2.28c-0.14,0.29-0.57,0.97-0.33,1.29
				C191.45,29.96,192.27,29.69,192.11,29.47L192.11,29.47z"/>
		</g>
	</g>
	
		<ellipse transform="matrix(0.9413 -0.3375 0.3375 0.9413 -3.6322 59.0681)" class="st10" cx="168.07" cy="39.98" rx="27.44" ry="6.09"/>
</g>
</svg>
